<?xml version="1.0" encoding="utf-8"?>
<!-- Generator: Adobe Illustrator 15.0.0, SVG Export Plug-In . SVG Version: 6.00 Build 0)  -->
<!DOCTYPE svg PUBLIC "-//W3C//DTD SVG 1.1//EN" "http://www.w3.org/Graphics/SVG/1.1/DTD/svg11.dtd">
<svg version="1.1" id="Layer_1" xmlns="http://www.w3.org/2000/svg" xmlns:xlink="http://www.w3.org/1999/xlink" x="0px" y="0px"
	 width="76px" height="92px" viewBox="0 0 76 92" enable-background="new 0 0 76 92" xml:space="preserve">
<linearGradient id="SVGID_1_" gradientUnits="userSpaceOnUse" x1="-2117.2271" y1="-1436.688" x2="-2098.71" y2="-1569.7778" gradientTransform="matrix(0.8089 0.5879 -0.5879 0.8089 913.0181 2490.9121)">
	<stop  offset="0" style="stop-color:#74CCCE"/>
	<stop  offset="0.5031" style="stop-color:#5D6EB4"/>
	<stop  offset="1" style="stop-color:#A88EC2"/>
</linearGradient>
<path fill="url(#SVGID_1_)" d="M61.302,72.449c-1.205,1.656-3.522,2.022-5.176,0.818c-1.658-1.201-2.023-3.52-0.818-5.176
	c1.203-1.656,3.521-2.021,5.176-0.818C62.138,68.477,62.505,70.793,61.302,72.449z"/>
<linearGradient id="SVGID_2_" gradientUnits="userSpaceOnUse" x1="-1206.4971" y1="189.6982" x2="-1187.9791" y2="56.601" gradientTransform="matrix(0.9839 0.1788 -0.1788 0.9839 1282.2192 107.3018)">
	<stop  offset="0" style="stop-color:#74CCCE"/>
	<stop  offset="0.5031" style="stop-color:#5D6EB4"/>
	<stop  offset="1" style="stop-color:#A88EC2"/>
</linearGradient>
<circle fill="url(#SVGID_2_)" cx="68.299" cy="56.748" r="3.704"/>
<linearGradient id="SVGID_3_" gradientUnits="userSpaceOnUse" x1="-1091.3252" y1="2057.7578" x2="-1072.807" y2="1924.6592" gradientTransform="matrix(0.964 -0.2658 0.2658 0.964 580.6699 -2201.9961)">
	<stop  offset="0" style="stop-color:#74CCCE"/>
	<stop  offset="0.5031" style="stop-color:#5D6EB4"/>
	<stop  offset="1" style="stop-color:#A88EC2"/>
</linearGradient>
<path fill="url(#SVGID_3_)" d="M75.01,39.244c0.542,1.974-0.614,4.013-2.589,4.558c-1.973,0.544-4.014-0.614-4.556-2.589
	c-0.546-1.973,0.614-4.012,2.585-4.557C72.425,36.112,74.464,37.271,75.01,39.244z"/>
<linearGradient id="SVGID_4_" gradientUnits="userSpaceOnUse" x1="-1793.0522" y1="3788.1689" x2="-1774.5365" y2="3655.0879" gradientTransform="matrix(0.7533 -0.6577 0.6577 0.7533 -1052.8115 -3977.0547)">
	<stop  offset="0" style="stop-color:#74CCCE"/>
	<stop  offset="0.5031" style="stop-color:#5D6EB4"/>
	<stop  offset="1" style="stop-color:#A88EC2"/>
</linearGradient>
<circle fill="url(#SVGID_4_)" cx="67.098" cy="23.983" r="3.707"/>
<linearGradient id="SVGID_5_" gradientUnits="userSpaceOnUse" x1="-3172.9395" y1="5038.7959" x2="-3154.4236" y2="4905.7148" gradientTransform="matrix(0.3934 -0.9194 0.9194 0.3934 -3294.9854 -4868.1523)">
	<stop  offset="0" style="stop-color:#74CCCE"/>
	<stop  offset="0.5031" style="stop-color:#5D6EB4"/>
	<stop  offset="1" style="stop-color:#A88EC2"/>
</linearGradient>
<circle fill="url(#SVGID_5_)" cx="56.141" cy="11.229" r="3.707"/>
<linearGradient id="SVGID_6_" gradientUnits="userSpaceOnUse" x1="-4958.7822" y1="5571.9502" x2="-4940.2715" y2="5438.9043" gradientTransform="matrix(-0.0444 -0.999 0.999 -0.0444 -5702.2588 -4697.8398)">
	<stop  offset="0" style="stop-color:#74CCCE"/>
	<stop  offset="0.5031" style="stop-color:#5D6EB4"/>
	<stop  offset="1" style="stop-color:#A88EC2"/>
</linearGradient>
<path fill="url(#SVGID_6_)" d="M40.57,0.788c2.045-0.09,3.778,1.493,3.865,3.537c0.094,2.045-1.491,3.777-3.536,3.867
	c-2.042,0.091-3.775-1.493-3.865-3.538C36.942,2.61,38.525,0.878,40.57,0.788z"/>
<linearGradient id="SVGID_7_" gradientUnits="userSpaceOnUse" x1="-6796.7568" y1="5276.4658" x2="-6778.2412" y2="5143.3848" gradientTransform="matrix(-0.4734 -0.8809 0.8809 -0.4734 -7796.5566 -3501.0088)">
	<stop  offset="0" style="stop-color:#74CCCE"/>
	<stop  offset="0.5031" style="stop-color:#5D6EB4"/>
	<stop  offset="1" style="stop-color:#A88EC2"/>
</linearGradient>
<circle fill="url(#SVGID_7_)" cx="23.931" cy="5.102" r="3.706"/>
<linearGradient id="SVGID_8_" gradientUnits="userSpaceOnUse" x1="8.812" y1="61.5049" x2="93.3351" y2="-2.2899">
	<stop  offset="0" style="stop-color:#73CBCC"/>
	<stop  offset="0.4908" style="stop-color:#86ABDA"/>
	<stop  offset="1" style="stop-color:#A88EC2"/>
</linearGradient>
<path fill="url(#SVGID_8_)" d="M33.623,14.624c-4.63,0.083-8.975,1.295-12.778,3.367C12.048,22.785,6.148,32.188,6.342,42.899
	c0.272,15.342,12.932,27.558,28.275,27.283c4.188-0.074,8.143-1.074,11.673-2.798c9.405-4.589,15.809-14.324,15.608-25.477
	C61.625,26.564,48.966,14.35,33.623,14.624z"/>
<linearGradient id="SVGID_9_" gradientUnits="userSpaceOnUse" x1="41.5703" y1="9.5146" x2="10.4186" y2="92.7521">
	<stop  offset="0" style="stop-color:#73CBCC"/>
	<stop  offset="0.5031" style="stop-color:#86A9D8"/>
	<stop  offset="1" style="stop-color:#A88EC2"/>
</linearGradient>
<path fill="url(#SVGID_9_)" d="M18.297,13.303C7.808,19.017,0.78,30.225,1.005,42.994c0.331,18.288,15.419,32.85,33.708,32.521
	c4.99-0.089,9.703-1.279,13.914-3.334L18.297,13.303z"/>
<linearGradient id="SVGID_10_" gradientUnits="userSpaceOnUse" x1="55.498" y1="23.8198" x2="3.1597" y2="67.9336">
	<stop  offset="0.3949" style="stop-color:#5186C5"/>
	<stop  offset="0.6094" style="stop-color:#4494CC"/>
</linearGradient>
<path fill="url(#SVGID_10_)" d="M20.749,18.045C12.007,22.856,6.148,32.227,6.342,42.899c0.272,15.342,12.932,27.558,28.275,27.283
	c4.146-0.074,8.066-1.057,11.571-2.75L20.749,18.045z"/>
<linearGradient id="SVGID_11_" gradientUnits="userSpaceOnUse" x1="51.3408" y1="131.0586" x2="18.3942" y2="56.3343">
	<stop  offset="0" style="stop-color:#73CBCC"/>
	<stop  offset="0.5031" style="stop-color:#86A9D8"/>
	<stop  offset="0.7716" style="stop-color:#9E9DCD"/>
	<stop  offset="1" style="stop-color:#A88EC2"/>
</linearGradient>
<polygon fill="url(#SVGID_11_)" points="18.735,92 34.12,78.611 49.504,92 "/>
</svg>
