<?xml version="1.0" encoding="utf-8"?>
<!-- Generator: Adobe Illustrator 15.0.2, SVG Export Plug-In . SVG Version: 6.00 Build 0)  -->
<!DOCTYPE svg PUBLIC "-//W3C//DTD SVG 1.1//EN" "http://www.w3.org/Graphics/SVG/1.1/DTD/svg11.dtd">
<svg version="1.1" id="Layer_1" xmlns="http://www.w3.org/2000/svg" xmlns:xlink="http://www.w3.org/1999/xlink" x="0px" y="0px"
	 width="12px" height="14px" viewBox="0 0 12 14" enable-background="new 0 0 12 14" xml:space="preserve">
<g>
	<path fill="#E2E3E3" d="M0.006,5.009h2.287L5,2v9.971L2.244,8.975H0.006V5.009z"/>
</g>
<g>
	<path fill="#E2E4E4" d="M7.475,10.354L6.768,9.646C7.611,8.801,8.076,7.684,8.076,6.5c0-1.185-0.465-2.302-1.309-3.146l0.707-0.707
		C8.508,3.68,9.076,5.048,9.076,6.5C9.076,7.95,8.508,9.318,7.475,10.354z"/>
</g>
<path fill="#E2E4E4" d="M9.51,12.418c1.586-1.592,2.46-3.691,2.46-5.917c0-2.229-0.874-4.331-2.46-5.917L8.875,1.21
	c1.418,1.418,2.2,3.297,2.2,5.29c0,1.992-0.782,3.869-2.2,5.289L9.51,12.418z"/>
</svg>
