<?xml version="1.0" encoding="utf-8"?>
<!-- Generator: Adobe Illustrator 16.0.0, SVG Export Plug-In . SVG Version: 6.00 Build 0)  -->
<!DOCTYPE svg PUBLIC "-//W3C//DTD SVG 1.1//EN" "http://www.w3.org/Graphics/SVG/1.1/DTD/svg11.dtd">
<svg version="1.1" id="Layer_1" xmlns="http://www.w3.org/2000/svg" xmlns:xlink="http://www.w3.org/1999/xlink" x="0px" y="0px"
	 width="35px" height="20px" viewBox="3.5 2 35 20" enable-background="new 3.5 2 35 20" xml:space="preserve">
<g>
	<g>
		
			<linearGradient id="SVGID_1_" gradientUnits="userSpaceOnUse" x1="21.7539" y1="-1.1172" x2="21.7539" y2="-22.8447" gradientTransform="matrix(1 0 0 -1 8.5 0)">
			<stop  offset="0" style="stop-color:#EB9B7B"/>
			<stop  offset="1" style="stop-color:#E28890"/>
		</linearGradient>
		<path fill="url(#SVGID_1_)" d="M37.529,3.044v17.912H23.051v-8.583l-1.041-0.188V22H38.5V2l0,0H22.01v6.84l1.041,0.706V3.044
			H37.529"/>
		
			<linearGradient id="SVGID_2_" gradientUnits="userSpaceOnUse" x1="21.7891" y1="-1.1177" x2="21.7891" y2="-22.844" gradientTransform="matrix(1 0 0 -1 8.5 0)">
			<stop  offset="0" style="stop-color:#EB9B7B"/>
			<stop  offset="1" style="stop-color:#E28890"/>
		</linearGradient>
		<path fill="url(#SVGID_2_)" d="M34.88,5.704v12.579h-9.282v-5.509l-0.937-0.167v6.72h11.258V4.66l0,0H24.661v6.129l0.937,0.314
			V5.704H34.88"/>
		
			<linearGradient id="SVGID_3_" gradientUnits="userSpaceOnUse" x1="2.7778" y1="-1.1177" x2="2.7778" y2="-22.8447" gradientTransform="matrix(1 0 0 -1 8.5 0)">
			<stop  offset="0" style="stop-color:#EB9B7B"/>
			<stop  offset="1" style="stop-color:#E28890"/>
		</linearGradient>
		<path fill="url(#SVGID_3_)" d="M11.885,10.92l-0.013,0.028l5.294,10.008H5.387l5.726-10.84l-0.877-0.57L3.659,22h15.237
			l-6.121-11.603l0,0"/>
		
			<linearGradient id="SVGID_4_" gradientUnits="userSpaceOnUse" x1="2.4575" y1="-1.1177" x2="2.4575" y2="-22.8451" gradientTransform="matrix(1 0 0 -1 8.5 0)">
			<stop  offset="0" style="stop-color:#EB9B7B"/>
			<stop  offset="1" style="stop-color:#E28890"/>
		</linearGradient>
		<path fill="url(#SVGID_4_)" d="M14.236,5.35l-0.655,6.797l0.902,1.501l0.974-10.12l0,0l-9.001,4.74l3.659,2.452l0.495-0.925
			L8.49,8.376L14.236,5.35"/>
		
			<linearGradient id="SVGID_5_" gradientUnits="userSpaceOnUse" x1="13.3589" y1="-1.1182" x2="13.3589" y2="-22.8432" gradientTransform="matrix(1 0 0 -1 8.5 0)">
			<stop  offset="0" style="stop-color:#EB9B7B"/>
			<stop  offset="1" style="stop-color:#E28890"/>
		</linearGradient>
		<path fill="url(#SVGID_5_)" d="M17.531,6.675l5.737,3.591L17.25,8.955L17.531,6.675 M16.8,4.984L16.044,9.7l11.058,2.273
			l0.571,0.026l-0.535-0.519L16.8,4.984L16.8,4.984z"/>
		
			<linearGradient id="SVGID_6_" gradientUnits="userSpaceOnUse" x1="21.8184" y1="-1.1162" x2="21.8184" y2="-22.8451" gradientTransform="matrix(1 0 0 -1 8.5 0)">
			<stop  offset="0" style="stop-color:#EB9B7B"/>
			<stop  offset="1" style="stop-color:#E28890"/>
		</linearGradient>
		<path fill="url(#SVGID_6_)" d="M30.32,9.651c1.213,0,2.201,0.991,2.201,2.209c0,1.219-0.988,2.209-2.201,2.209
			c-1.215,0-2.203-0.99-2.203-2.209C28.117,10.642,29.105,9.651,30.32,9.651 M30.32,8.607c-1.791,0-3.243,1.457-3.243,3.253
			c0,1.797,1.452,3.253,3.243,3.253c1.789,0,3.241-1.456,3.241-3.253C33.561,10.064,32.109,8.607,30.32,8.607L30.32,8.607z"/>
	</g>
</g>
</svg>
