<?xml version="1.0" encoding="utf-8"?>
<!-- Generator: Adobe Illustrator 16.0.0, SVG Export Plug-In . SVG Version: 6.00 Build 0)  -->
<!DOCTYPE svg PUBLIC "-//W3C//DTD SVG 1.1//EN" "http://www.w3.org/Graphics/SVG/1.1/DTD/svg11.dtd">
<svg version="1.1" id="Layer_1" xmlns="http://www.w3.org/2000/svg" xmlns:xlink="http://www.w3.org/1999/xlink" x="0px" y="0px"
	 width="26px" height="31px" viewBox="1 1.5 26 31" enable-background="new 1 1.5 26 31" xml:space="preserve">
<g>
	<g>
		<g>
			
				<linearGradient id="SVGID_1_" gradientUnits="userSpaceOnUse" x1="12.4854" y1="-22.8901" x2="12.4854" y2="9.0032" gradientTransform="matrix(1 0 0 -1 8.5 10)">
				<stop  offset="0" style="stop-color:#4A7FE4"/>
				<stop  offset="1" style="stop-color:#68BAE3"/>
			</linearGradient>
			<circle fill="url(#SVGID_1_)" cx="20.986" cy="25.062" r="1.257"/>
		</g>
		<g>
			
				<linearGradient id="SVGID_2_" gradientUnits="userSpaceOnUse" x1="15.877" y1="-22.8833" x2="15.877" y2="8.9863" gradientTransform="matrix(1 0 0 -1 8.5 10)">
				<stop  offset="0" style="stop-color:#4A7FE4"/>
				<stop  offset="1" style="stop-color:#68BAE3"/>
			</linearGradient>
			<circle fill="url(#SVGID_2_)" cx="24.376" cy="20.477" r="1.256"/>
		</g>
		<g>
			
				<linearGradient id="SVGID_3_" gradientUnits="userSpaceOnUse" x1="16.9404" y1="-22.8833" x2="16.9404" y2="8.9884" gradientTransform="matrix(1 0 0 -1 8.5 10)">
				<stop  offset="0" style="stop-color:#4A7FE4"/>
				<stop  offset="1" style="stop-color:#68BAE3"/>
			</linearGradient>
			<circle fill="url(#SVGID_3_)" cx="25.439" cy="14.874" r="1.257"/>
		</g>
		<g>
			
				<linearGradient id="SVGID_4_" gradientUnits="userSpaceOnUse" x1="15.4678" y1="-22.8892" x2="15.4678" y2="8.9928" gradientTransform="matrix(1 0 0 -1 8.5 10)">
				<stop  offset="0" style="stop-color:#4A7FE4"/>
				<stop  offset="1" style="stop-color:#68BAE3"/>
			</linearGradient>
			<circle fill="url(#SVGID_4_)" cx="23.968" cy="9.366" r="1.257"/>
		</g>
		<g>
			
				<linearGradient id="SVGID_5_" gradientUnits="userSpaceOnUse" x1="11.7529" y1="-22.8784" x2="11.7529" y2="8.9912" gradientTransform="matrix(1 0 0 -1 8.5 10)">
				<stop  offset="0" style="stop-color:#4A7FE4"/>
				<stop  offset="1" style="stop-color:#68BAE3"/>
			</linearGradient>
			<circle fill="url(#SVGID_5_)" cx="20.252" cy="5.041" r="1.256"/>
		</g>
		<g>
			
				<linearGradient id="SVGID_6_" gradientUnits="userSpaceOnUse" x1="6.5293" y1="-22.8887" x2="6.5293" y2="8.9923" gradientTransform="matrix(1 0 0 -1 8.5 10)">
				<stop  offset="0" style="stop-color:#4A7FE4"/>
				<stop  offset="1" style="stop-color:#68BAE3"/>
			</linearGradient>
			<circle fill="url(#SVGID_6_)" cx="15.03" cy="2.756" r="1.256"/>
		</g>
		<g>
			
				<linearGradient id="SVGID_7_" gradientUnits="userSpaceOnUse" x1="0.8306" y1="-22.8843" x2="0.8306" y2="8.9915" gradientTransform="matrix(1 0 0 -1 8.5 10)">
				<stop  offset="0" style="stop-color:#4A7FE4"/>
				<stop  offset="1" style="stop-color:#68BAE3"/>
			</linearGradient>
			<circle fill="url(#SVGID_7_)" cx="9.331" cy="2.964" r="1.257"/>
		</g>
		
			<linearGradient id="SVGID_8_" gradientUnits="userSpaceOnUse" x1="4.2856" y1="-22.8857" x2="4.2856" y2="8.9921" gradientTransform="matrix(1 0 0 -1 8.5 10)">
			<stop  offset="0" style="stop-color:#4A7FE4"/>
			<stop  offset="1" style="stop-color:#68BAE3"/>
		</linearGradient>
		<path fill="url(#SVGID_8_)" d="M12.79,7.74c2.073,0,4.03,0.801,5.51,2.254c1.483,1.455,2.319,3.399,2.355,5.477
			c0.056,3.048-1.681,5.882-4.422,7.218c-1.037,0.506-2.149,0.772-3.305,0.793c-0.049,0.001-0.095,0.001-0.145,0.001
			c-2.072,0-4.028-0.8-5.509-2.253c-1.482-1.454-2.32-3.4-2.357-5.479c-0.055-2.942,1.52-5.646,4.107-7.056
			c1.122-0.61,2.339-0.93,3.62-0.953C12.693,7.74,12.742,7.74,12.79,7.74 M12.79,6.65c-0.055,0-0.108,0-0.164,0.001
			c-1.495,0.026-2.895,0.418-4.123,1.086c-2.836,1.546-4.74,4.579-4.678,8.035c0.087,4.895,4.083,8.804,8.957,8.804
			c0.056,0,0.109,0,0.164-0.002c1.351-0.021,2.627-0.348,3.767-0.9c3.032-1.479,5.098-4.62,5.033-8.219
			C21.659,10.558,17.665,6.65,12.79,6.65L12.79,6.65z"/>
		
			<linearGradient id="SVGID_9_" gradientUnits="userSpaceOnUse" x1="1.0005" y1="-22.8857" x2="1.0005" y2="8.9918" gradientTransform="matrix(1 0 0 -1 8.5 10)">
			<stop  offset="0" style="stop-color:#4A7FE4"/>
			<stop  offset="1" style="stop-color:#68BAE3"/>
		</linearGradient>
		<path fill="url(#SVGID_9_)" d="M6.753,7.035l4.731,9.186l1.081-0.49L7.219,5.354l0,0c-3.672,2-6.134,5.925-6.053,10.396
			c0.113,6.333,5.281,11.389,11.589,11.389c0.071,0,0.141,0,0.211-0.002c1.749-0.028,3.398-0.444,4.872-1.166l-0.498-1.033
			l-1.141,0.437c-1.041,0.366-2.131,0.56-3.255,0.581c-0.063,0-0.126,0.002-0.19,0.002c-2.74,0-5.33-1.059-7.288-2.981
			c-1.961-1.924-3.068-4.495-3.117-7.243C2.288,12.244,3.95,9.013,6.753,7.035"/>
		
			<linearGradient id="SVGID_10_" gradientUnits="userSpaceOnUse" x1="4.2856" y1="-22.8867" x2="4.2856" y2="8.9886" gradientTransform="matrix(1 0 0 -1 8.5 10)">
			<stop  offset="0" style="stop-color:#4A7FE4"/>
			<stop  offset="1" style="stop-color:#68BAE3"/>
		</linearGradient>
		<path fill="url(#SVGID_10_)" d="M12.786,29.409l2.152,1.873h-4.303L12.786,29.409 M12.786,27.89L7.57,32.429h10.432L12.786,27.89
			L12.786,27.89z"/>
	</g>
</g>
</svg>
