<?xml version="1.0" encoding="utf-8"?>
<!-- Generator: Adobe Illustrator 15.1.0, SVG Export Plug-In . SVG Version: 6.00 Build 0)  -->
<!DOCTYPE svg PUBLIC "-//W3C//DTD SVG 1.1//EN" "http://www.w3.org/Graphics/SVG/1.1/DTD/svg11.dtd">
<svg version="1.1" id="Layer_1" xmlns="http://www.w3.org/2000/svg" xmlns:xlink="http://www.w3.org/1999/xlink" x="0px" y="0px"
	 width="75.875px" height="78.5px" viewBox="0 0 75.875 78.5" enable-background="new 0 0 75.875 78.5" xml:space="preserve">
<g>
	<linearGradient id="SVGID_1_" gradientUnits="userSpaceOnUse" x1="78.3477" y1="1.7358" x2="-12.9522" y2="96.6979">
		<stop  offset="0" style="stop-color:#3A9AE6"/>
		<stop  offset="1" style="stop-color:#A6CC66"/>
	</linearGradient>
	<path fill="url(#SVGID_1_)" d="M67.319,18.066L28.968,6.979L6.571,40.026l24.51,31.513l37.544-13.572L67.319,18.066z
		 M33.084,63.613L14.698,39.742l17.021-24.863l28.908,8.505l0.842,30.12L33.084,63.613z"/>
	<linearGradient id="SVGID_2_" gradientUnits="userSpaceOnUse" x1="72.5098" y1="-7.3311" x2="-19.6041" y2="64.1821">
		<stop  offset="0" style="stop-color:#3A9AE6"/>
		<stop  offset="1" style="stop-color:#A6CC66"/>
	</linearGradient>
	<circle fill="url(#SVGID_2_)" cx="11.803" cy="39.799" r="11.474"/>
	<linearGradient id="SVGID_3_" gradientUnits="userSpaceOnUse" x1="93.2227" y1="19.3511" x2="1.1103" y2="90.8631">
		<stop  offset="0" style="stop-color:#3A9AE6"/>
		<stop  offset="1" style="stop-color:#A6CC66"/>
	</linearGradient>
	<circle fill="url(#SVGID_3_)" cx="32.33" cy="66.626" r="11.473"/>
	<linearGradient id="SVGID_4_" gradientUnits="userSpaceOnUse" x1="99.4941" y1="27.4297" x2="7.3834" y2="98.9404">
		<stop  offset="0" style="stop-color:#3A9AE6"/>
		<stop  offset="1" style="stop-color:#A6CC66"/>
	</linearGradient>
	<circle fill="url(#SVGID_4_)" cx="64.247" cy="54.793" r="11.473"/>
	<linearGradient id="SVGID_5_" gradientUnits="userSpaceOnUse" x1="82.8174" y1="5.9482" x2="-9.2947" y2="77.46">
		<stop  offset="0" style="stop-color:#3A9AE6"/>
		<stop  offset="1" style="stop-color:#A6CC66"/>
	</linearGradient>
	<circle fill="url(#SVGID_5_)" cx="63.186" cy="21.188" r="11.473"/>
	<linearGradient id="SVGID_6_" gradientUnits="userSpaceOnUse" x1="66.1855" y1="-15.4751" x2="-25.9275" y2="56.0374">
		<stop  offset="0" style="stop-color:#3A9AE6"/>
		<stop  offset="1" style="stop-color:#A6CC66"/>
	</linearGradient>
	<circle fill="url(#SVGID_6_)" cx="30.961" cy="11.87" r="11.473"/>
	<linearGradient id="SVGID_7_" gradientUnits="userSpaceOnUse" x1="7.6055" y1="43.5205" x2="25.2639" y2="34.2989">
		<stop  offset="0" style="stop-color:#4F946E"/>
		<stop  offset="1" style="stop-color:#4C9371"/>
	</linearGradient>
	<path fill="url(#SVGID_7_)" d="M20.501,47.276l-5.803-7.534l5.391-7.874c-1.536-1.604-3.532-2.762-5.777-3.264l-7.74,11.421
		l8.399,10.8C17.15,50.201,19.062,48.949,20.501,47.276z"/>
	<linearGradient id="SVGID_8_" gradientUnits="userSpaceOnUse" x1="22.7363" y1="64.79" x2="44.2199" y2="61.8471">
		<stop  offset="0" style="stop-color:#539668"/>
		<stop  offset="1" style="stop-color:#4A9275"/>
	</linearGradient>
	<path fill="url(#SVGID_8_)" d="M41.99,60.441l-8.906,3.172l-5.667-7.357c-2.004,0.951-3.688,2.466-4.848,4.34l8.512,10.943
		l12.714-4.596c0.002-0.105,0.008-0.211,0.008-0.317C43.803,64.348,43.136,62.227,41.99,60.441z"/>
	<linearGradient id="SVGID_9_" gradientUnits="userSpaceOnUse" x1="55.6426" y1="63.207" x2="69.7697" y2="44.3709">
		<stop  offset="0" style="stop-color:#408C85"/>
		<stop  offset="1" style="stop-color:#31829E"/>
	</linearGradient>
	<path fill="url(#SVGID_9_)" d="M68.169,44.008c-1.224-0.445-2.545-0.688-3.923-0.688c-1.057,0-2.078,0.146-3.051,0.413l0.273,9.771
		l-8.561,3.049c0.355,2.314,1.404,4.398,2.926,6.038l12.791-4.624L68.169,44.008z"/>
	<linearGradient id="SVGID_10_" gradientUnits="userSpaceOnUse" x1="55.665" y1="27.2251" x2="67.0457" y2="18.0029">
		<stop  offset="0" style="stop-color:#297AA7"/>
		<stop  offset="1" style="stop-color:#2275B8"/>
	</linearGradient>
	<path fill="url(#SVGID_10_)" d="M60.627,23.384l0.252,9.045c0.746,0.152,1.518,0.232,2.308,0.232c1.628,0,3.176-0.341,4.579-0.953
		l-0.446-13.641l-13.257-3.833c-1.393,1.825-2.25,4.08-2.339,6.531L60.627,23.384z"/>
	<linearGradient id="SVGID_11_" gradientUnits="userSpaceOnUse" x1="22.0503" y1="20.2534" x2="41.0818" y2="8.4813">
		<stop  offset="0" style="stop-color:#37848C"/>
		<stop  offset="1" style="stop-color:#2A7BA6"/>
	</linearGradient>
	<path fill="url(#SVGID_11_)" d="M26.532,22.456l5.187-7.577l9.19,2.704c0.969-1.683,1.525-3.632,1.525-5.713
		c0-0.341-0.018-0.678-0.047-1.012l-13.42-3.88l-7.589,11.199C22.626,20.069,24.418,21.57,26.532,22.456z"/>
</g>
</svg>
