<?xml version="1.0" encoding="UTF-8"?>
<!-- Generator: Adobe Illustrator 15.0.2, SVG Export Plug-In . SVG Version: 6.00 Build 0)  -->
<!DOCTYPE svg PUBLIC "-//W3C//DTD SVG 1.1//EN" "http://www.w3.org/Graphics/SVG/1.1/DTD/svg11.dtd">
<svg version="1.1" id="Layer_1" xmlns="http://www.w3.org/2000/svg" xmlns:xlink="http://www.w3.org/1999/xlink" x="0px" y="0px" height="100%" viewBox="0 0 2225.861 1215.765" enable-background="new 0 0 2225.861 1215.765" xml:space="preserve">
<g opacity="0.12">
	<g>
		<g>
			<path fill="none" stroke="#000000" vector-effect="non-scaling-stroke" stroke-miterlimit="10" stroke-width="0.5px" d="M0.401,0.622c0,404.84,0,809.68,0,1214.521"/>
			<path fill="none" stroke="#000000" vector-effect="non-scaling-stroke" stroke-miterlimit="10" stroke-width="0.5px" d="M30.638,15.734c0,394.765,0,789.531,0,1184.296"/>
			<path fill="none" stroke="#000000" vector-effect="non-scaling-stroke" stroke-miterlimit="10" stroke-width="0.5px" d="M61.029,30.406c0,384.984,0,769.969,0,1154.953"/>
			<path fill="none" stroke="#000000" vector-effect="non-scaling-stroke" stroke-miterlimit="10" stroke-width="0.5px" d="M91.57,44.636c0,375.497,0,750.995,0,1126.492"/>
			<path fill="none" stroke="#000000" vector-effect="non-scaling-stroke" stroke-miterlimit="10" stroke-width="0.5px" d="M121.295,58.001c0,366.587,0,733.175,0,1099.762"/>
			<path fill="none" stroke="#000000" vector-effect="non-scaling-stroke" stroke-miterlimit="10" stroke-width="0.5px" d="M152.118,71.363c0,357.68,0,715.359,0,1073.039"/>
			<path fill="none" stroke="#000000" vector-effect="non-scaling-stroke" stroke-miterlimit="10" stroke-width="0.5px" d="M183.077,84.284c0,349.065,0,698.131,0,1047.197"/>
			<path fill="none" stroke="#000000" vector-effect="non-scaling-stroke" stroke-miterlimit="10" stroke-width="0.5px" d="M214.168,96.764c0,340.745,0,681.491,0,1022.236"/>
			<path fill="none" stroke="#000000" vector-effect="non-scaling-stroke" stroke-miterlimit="10" stroke-width="0.5px" d="M245.386,108.803c0,332.72,0,665.439,0,998.159"/>
			<path fill="none" stroke="#000000" vector-effect="non-scaling-stroke" stroke-miterlimit="10" stroke-width="0.5px" d="M275.746,120.045c0,325.225,0,650.45,0,975.674"/>
			<path fill="none" stroke="#000000" vector-effect="non-scaling-stroke" stroke-miterlimit="10" stroke-width="0.5px" d="M307.2,131.216c0,317.778,0,635.555,0,953.333"/>
			<path fill="none" stroke="#000000" vector-effect="non-scaling-stroke" stroke-miterlimit="10" stroke-width="0.5px" d="M338.769,141.945c0,310.625,0,621.25,0,931.875"/>
			<path fill="none" stroke="#000000" vector-effect="non-scaling-stroke" stroke-miterlimit="10" stroke-width="0.5px" d="M370.446,152.234c0,303.766,0,607.531,0,911.297"/>
			<path fill="none" stroke="#000000" vector-effect="non-scaling-stroke" stroke-miterlimit="10" stroke-width="0.5px" d="M401.233,161.78c0,297.401,0,594.803,0,892.205"/>
			<path fill="none" stroke="#000000" vector-effect="non-scaling-stroke" stroke-miterlimit="10" stroke-width="0.5px" d="M433.112,171.201c0,291.121,0,582.242,0,873.363"/>
			<path fill="none" stroke="#000000" vector-effect="non-scaling-stroke" stroke-miterlimit="10" stroke-width="0.5px" d="M465.086,180.18c0,285.135,0,570.27,0,855.406"/>
			<path fill="none" stroke="#000000" vector-effect="non-scaling-stroke" stroke-miterlimit="10" stroke-width="0.5px" d="M497.151,188.718c0,279.443,0,558.886,0,838.329"/>
			<path fill="none" stroke="#000000" vector-effect="non-scaling-stroke" stroke-miterlimit="10" stroke-width="0.5px" d="M529.302,196.815c0,274.045,0,548.09,0,822.135"/>
			<path fill="none" stroke="#000000" vector-effect="non-scaling-stroke" stroke-miterlimit="10" stroke-width="0.5px" d="M560.526,204.239c0,269.096,0,538.191,0,807.287"/>
			<path fill="none" stroke="#000000" vector-effect="non-scaling-stroke" stroke-miterlimit="10" stroke-width="0.5px" d="M592.834,211.467c0,264.277,0,528.554,0,792.83"/>
			<path fill="none" stroke="#000000" vector-effect="non-scaling-stroke" stroke-miterlimit="10" stroke-width="0.5px" d="M625.214,218.255c0,259.751,0,519.503,0,779.254"/>
			<path fill="none" stroke="#000000" vector-effect="non-scaling-stroke" stroke-miterlimit="10" stroke-width="0.5px" d="M657.663,224.602c0,255.52,0,511.04,0,766.561"/>
			<path fill="none" stroke="#000000" vector-effect="non-scaling-stroke" stroke-miterlimit="10" stroke-width="0.5px" d="M689.158,230.33c0,251.702,0,503.403,0,755.105"/>
			<path fill="none" stroke="#000000" vector-effect="non-scaling-stroke" stroke-miterlimit="10" stroke-width="0.5px" d="M721.727,235.809c0,248.049,0,496.098,0,744.148"/>
			<path fill="none" stroke="#000000" vector-effect="non-scaling-stroke" stroke-miterlimit="10" stroke-width="0.5px" d="M754.351,240.846c0,244.691,0,489.382,0,734.073"/>
			<path fill="none" stroke="#000000" vector-effect="non-scaling-stroke" stroke-miterlimit="10" stroke-width="0.5px" d="M787.024,245.442c0,241.626,0,483.253,0,724.88"/>
			<path fill="none" stroke="#000000" vector-effect="non-scaling-stroke" stroke-miterlimit="10" stroke-width="0.5px" d="M819.743,249.598c0,238.856,0,477.713,0,716.57"/>
			<path fill="none" stroke="#000000" vector-effect="non-scaling-stroke" stroke-miterlimit="10" stroke-width="0.5px" d="M851.479,253.203c0,236.453,0,472.906,0,709.359"/>
			<path fill="none" stroke="#000000" vector-effect="non-scaling-stroke" stroke-miterlimit="10" stroke-width="0.5px" d="M884.273,256.49c0,234.262,0,468.523,0,702.785"/>
			<path fill="none" stroke="#000000" vector-effect="non-scaling-stroke" stroke-miterlimit="10" stroke-width="0.5px" d="M917.101,259.336c0,232.364,0,464.729,0,697.093"/>
			<path fill="none" stroke="#000000" vector-effect="non-scaling-stroke" stroke-miterlimit="10" stroke-width="0.5px" d="M949.955,261.741c0,230.761,0,461.522,0,692.283"/>
			<path fill="none" stroke="#000000" vector-effect="non-scaling-stroke" stroke-miterlimit="10" stroke-width="0.5px" d="M981.804,263.65c0,229.488,0,458.977,0,688.465"/>
			<path fill="none" stroke="#000000" vector-effect="non-scaling-stroke" stroke-miterlimit="10" stroke-width="0.5px" d="M1014.698,265.187c0,228.463,0,456.927,0,685.391"/>
			<path fill="none" stroke="#000000" vector-effect="non-scaling-stroke" stroke-miterlimit="10" stroke-width="0.5px" d="M1047.605,266.283c0,227.733,0,455.466,0,683.199"/>
			<path fill="none" stroke="#000000" vector-effect="non-scaling-stroke" stroke-miterlimit="10" stroke-width="0.5px" d="M1080.522,266.937c0,227.297,0,454.594,0,681.891"/>
			<path fill="none" stroke="#000000" vector-effect="non-scaling-stroke" stroke-miterlimit="10" stroke-width="0.5px" d="M1112.415,267.151c0,227.154,0,454.309,0,681.463"/>
			<path fill="none" stroke="#000000" vector-effect="non-scaling-stroke" stroke-miterlimit="10" stroke-width="0.5px" d="M1145.337,266.937c0,227.297,0,454.594,0,681.891"/>
			<path fill="none" stroke="#000000" vector-effect="non-scaling-stroke" stroke-miterlimit="10" stroke-width="0.5px" d="M1178.254,266.283c0,227.733,0,455.466,0,683.199"/>
			<path fill="none" stroke="#000000" vector-effect="non-scaling-stroke" stroke-miterlimit="10" stroke-width="0.5px" d="M1211.161,265.187c0,228.463,0,456.927,0,685.391"/>
			<path fill="none" stroke="#000000" vector-effect="non-scaling-stroke" stroke-miterlimit="10" stroke-width="0.5px" d="M1244.056,263.65c0,229.488,0,458.977,0,688.465"/>
			<path fill="none" stroke="#000000" vector-effect="non-scaling-stroke" stroke-miterlimit="10" stroke-width="0.5px" d="M1275.905,261.741c0,230.761,0,461.522,0,692.283"/>
			<path fill="none" stroke="#000000" vector-effect="non-scaling-stroke" stroke-miterlimit="10" stroke-width="0.5px" d="M1308.759,259.336c0,232.364,0,464.729,0,697.093"/>
			<path fill="none" stroke="#000000" vector-effect="non-scaling-stroke" stroke-miterlimit="10" stroke-width="0.5px" d="M1341.586,256.49c0,234.262,0,468.523,0,702.785"/>
			<path fill="none" stroke="#000000" vector-effect="non-scaling-stroke" stroke-miterlimit="10" stroke-width="0.5px" d="M1374.381,253.203c0,236.453,0,472.906,0,709.359"/>
			<path fill="none" stroke="#000000" vector-effect="non-scaling-stroke" stroke-miterlimit="10" stroke-width="0.5px" d="M1406.116,249.598c0,238.856,0,477.713,0,716.57"/>
			<path fill="none" stroke="#000000" vector-effect="non-scaling-stroke" stroke-miterlimit="10" stroke-width="0.5px" d="M1438.835,245.442c0,241.626,0,483.253,0,724.88"/>
			<path fill="none" stroke="#000000" vector-effect="non-scaling-stroke" stroke-miterlimit="10" stroke-width="0.5px" d="M1471.509,240.846c0,244.691,0,489.382,0,734.073"/>
			<path fill="none" stroke="#000000" vector-effect="non-scaling-stroke" stroke-miterlimit="10" stroke-width="0.5px" d="M1504.133,235.809c0,248.049,0,496.098,0,744.148"/>
			<path fill="none" stroke="#000000" vector-effect="non-scaling-stroke" stroke-miterlimit="10" stroke-width="0.5px" d="M1536.701,230.33c0,251.702,0,503.403,0,755.105"/>
			<path fill="none" stroke="#000000" vector-effect="non-scaling-stroke" stroke-miterlimit="10" stroke-width="0.5px" d="M1568.196,224.602c0,255.52,0,511.04,0,766.561"/>
			<path fill="none" stroke="#000000" vector-effect="non-scaling-stroke" stroke-miterlimit="10" stroke-width="0.5px" d="M1600.645,218.255c0,259.751,0,519.503,0,779.254"/>
			<path fill="none" stroke="#000000" vector-effect="non-scaling-stroke" stroke-miterlimit="10" stroke-width="0.5px" d="M1633.025,211.467c0,264.277,0,528.554,0,792.83"/>
			<path fill="none" stroke="#000000" vector-effect="non-scaling-stroke" stroke-miterlimit="10" stroke-width="0.5px" d="M1665.333,204.239c0,269.096,0,538.191,0,807.287"/>
			<path fill="none" stroke="#000000" vector-effect="non-scaling-stroke" stroke-miterlimit="10" stroke-width="0.5px" d="M1696.558,196.815c0,274.045,0,548.09,0,822.135"/>
			<path fill="none" stroke="#000000" vector-effect="non-scaling-stroke" stroke-miterlimit="10" stroke-width="0.5px" d="M1728.708,188.718c0,279.443,0,558.886,0,838.329"/>
			<path fill="none" stroke="#000000" vector-effect="non-scaling-stroke" stroke-miterlimit="10" stroke-width="0.5px" d="M1760.773,180.18c0,285.135,0,570.27,0,855.406"/>
			<path fill="none" stroke="#000000" vector-effect="non-scaling-stroke" stroke-miterlimit="10" stroke-width="0.5px" d="M1792.747,171.201c0,291.121,0,582.242,0,873.363"/>
			<path fill="none" stroke="#000000" vector-effect="non-scaling-stroke" stroke-miterlimit="10" stroke-width="0.5px" d="M1824.626,161.78c0,297.401,0,594.803,0,892.205"/>
			<path fill="none" stroke="#000000" vector-effect="non-scaling-stroke" stroke-miterlimit="10" stroke-width="0.5px" d="M1855.413,152.234c0,303.766,0,607.531,0,911.297"/>
			<path fill="none" stroke="#000000" vector-effect="non-scaling-stroke" stroke-miterlimit="10" stroke-width="0.5px" d="M1887.091,141.945c0,310.625,0,621.25,0,931.875"/>
			<path fill="none" stroke="#000000" vector-effect="non-scaling-stroke" stroke-miterlimit="10" stroke-width="0.5px" d="M1918.659,131.216c0,317.778,0,635.555,0,953.333"/>
			<path fill="none" stroke="#000000" vector-effect="non-scaling-stroke" stroke-miterlimit="10" stroke-width="0.5px" d="M1950.114,120.045c-0.001,325.225-0.001,650.45,0,975.674"/>
			<path fill="none" stroke="#000000" vector-effect="non-scaling-stroke" stroke-miterlimit="10" stroke-width="0.5px" d="M1980.473,108.803c0,332.72,0,665.439,0,998.159"/>
			<path fill="none" stroke="#000000" vector-effect="non-scaling-stroke" stroke-miterlimit="10" stroke-width="0.5px" d="M2011.691,96.764c0,340.745,0,681.491,0,1022.236"/>
			<path fill="none" stroke="#000000" vector-effect="non-scaling-stroke" stroke-miterlimit="10" stroke-width="0.5px" d="M2042.782,84.284c0,349.065,0,698.131,0,1047.197"/>
			<path fill="none" stroke="#000000" vector-effect="non-scaling-stroke" stroke-miterlimit="10" stroke-width="0.5px" d="M2073.741,71.363c0,357.68,0,715.359,0,1073.039"/>
			<path fill="none" stroke="#000000" vector-effect="non-scaling-stroke" stroke-miterlimit="10" stroke-width="0.5px" d="M2104.564,58.001c0,366.587,0,733.175,0,1099.762"/>
			<path fill="none" stroke="#000000" vector-effect="non-scaling-stroke" stroke-miterlimit="10" stroke-width="0.5px" d="M2134.289,44.636c0,375.497,0,750.995,0,1126.492"/>
			<path fill="none" stroke="#000000" vector-effect="non-scaling-stroke" stroke-miterlimit="10" stroke-width="0.5px" d="M2164.83,30.406c0,384.984,0,769.969,0,1154.953"/>
			<path fill="none" stroke="#000000" vector-effect="non-scaling-stroke" stroke-miterlimit="10" stroke-width="0.5px" d="M2195.222,15.734c0,394.765,0,789.531,0,1184.296"/>
			<path fill="none" stroke="#000000" vector-effect="non-scaling-stroke" stroke-miterlimit="10" stroke-width="0.5px" d="M2225.459,0.622c0,404.84,0,809.68,0,1214.521"/>
		</g>
		<g>
			<path fill="none" stroke="#000000" vector-effect="non-scaling-stroke" stroke-miterlimit="10" stroke-width="0.5px" d="M2225.93-0.118c-699.232,355.984-1526.767,355.984-2226,0"/>
			<path fill="none" stroke="#000000" vector-effect="non-scaling-stroke" stroke-miterlimit="10" stroke-width="0.5px" d="M2225.93,31.882c-699.232,337.248-1526.767,337.248-2226,0"/>
			<path fill="none" stroke="#000000" vector-effect="non-scaling-stroke" stroke-miterlimit="10" stroke-width="0.5px" d="M2225.93,63.882c-699.232,318.512-1526.767,318.512-2226,0"/>
			<path fill="none" stroke="#000000" vector-effect="non-scaling-stroke" stroke-miterlimit="10" stroke-width="0.5px" d="M2225.93,95.882c-699.232,299.776-1526.767,299.776-2226,0"/>
			<path fill="none" stroke="#000000" vector-effect="non-scaling-stroke" stroke-miterlimit="10" stroke-width="0.5px" d="M2225.93,127.882c-699.232,281.04-1526.767,281.04-2226,0"/>
			<path fill="none" stroke="#000000" vector-effect="non-scaling-stroke" stroke-miterlimit="10" stroke-width="0.5px" d="M2225.93,159.882c-699.232,262.304-1526.767,262.304-2226,0"/>
			<path fill="none" stroke="#000000" vector-effect="non-scaling-stroke" stroke-miterlimit="10" stroke-width="0.5px" d="M2225.93,191.882c-699.232,243.568-1526.767,243.568-2226,0"/>
			<path fill="none" stroke="#000000" vector-effect="non-scaling-stroke" stroke-miterlimit="10" stroke-width="0.5px" d="M2225.93,223.882c-699.232,224.832-1526.767,224.832-2226,0"/>
			<path fill="none" stroke="#000000" vector-effect="non-scaling-stroke" stroke-miterlimit="10" stroke-width="0.5px" d="M2225.93,255.882c-699.232,206.096-1526.767,206.096-2226,0"/>
			<path fill="none" stroke="#000000" vector-effect="non-scaling-stroke" stroke-miterlimit="10" stroke-width="0.5px" d="M2225.93,287.882c-699.232,187.36-1526.767,187.36-2226,0"/>
			<path fill="none" stroke="#000000" vector-effect="non-scaling-stroke" stroke-miterlimit="10" stroke-width="0.5px" d="M2225.93,319.882c-699.232,168.624-1526.767,168.624-2226,0"/>
			<path fill="none" stroke="#000000" vector-effect="non-scaling-stroke" stroke-miterlimit="10" stroke-width="0.5px" d="M2225.93,351.882c-699.232,149.888-1526.767,149.888-2226,0"/>
			<path fill="none" stroke="#000000" vector-effect="non-scaling-stroke" stroke-miterlimit="10" stroke-width="0.5px" d="M2225.93,383.882c-699.232,131.152-1526.767,131.152-2226,0"/>
			<path fill="none" stroke="#000000" vector-effect="non-scaling-stroke" stroke-miterlimit="10" stroke-width="0.5px" d="M2225.93,415.882c-699.232,112.416-1526.767,112.416-2226,0"/>
			<path fill="none" stroke="#000000" vector-effect="non-scaling-stroke" stroke-miterlimit="10" stroke-width="0.5px" d="M2225.93,447.882c-699.232,93.68-1526.767,93.68-2226,0"/>
			<path fill="none" stroke="#000000" vector-effect="non-scaling-stroke" stroke-miterlimit="10" stroke-width="0.5px" d="M2225.93,479.882c-699.232,74.944-1526.767,74.944-2226,0"/>
			<path fill="none" stroke="#000000" vector-effect="non-scaling-stroke" stroke-miterlimit="10" stroke-width="0.5px" d="M2225.93,511.882c-699.232,56.208-1526.767,56.208-2226,0"/>
			<path fill="none" stroke="#000000" vector-effect="non-scaling-stroke" stroke-miterlimit="10" stroke-width="0.5px" d="M2225.93,543.882c-699.232,37.472-1526.767,37.472-2226,0"/>
			<path fill="none" stroke="#000000" vector-effect="non-scaling-stroke" stroke-miterlimit="10" stroke-width="0.5px" d="M2225.93,575.882c-699.232,18.736-1526.767,18.736-2226,0"/>
			<path fill="none" stroke="#000000" vector-effect="non-scaling-stroke" stroke-miterlimit="10" stroke-width="0.5px" d="M2225.93,607.882c-699.232,0-1526.767,0-2226,0"/>
			<path fill="none" stroke="#000000" vector-effect="non-scaling-stroke" stroke-miterlimit="10" stroke-width="0.5px" d="M2225.93,639.882c-699.232-18.736-1526.767-18.736-2226,0"/>
			<path fill="none" stroke="#000000" vector-effect="non-scaling-stroke" stroke-miterlimit="10" stroke-width="0.5px" d="M2225.93,671.882c-699.232-37.472-1526.767-37.472-2226,0"/>
			<path fill="none" stroke="#000000" vector-effect="non-scaling-stroke" stroke-miterlimit="10" stroke-width="0.5px" d="M2225.93,703.882c-699.232-56.208-1526.767-56.208-2226,0"/>
			<path fill="none" stroke="#000000" vector-effect="non-scaling-stroke" stroke-miterlimit="10" stroke-width="0.5px" d="M2225.93,735.882c-699.232-74.944-1526.767-74.944-2226,0"/>
			<path fill="none" stroke="#000000" vector-effect="non-scaling-stroke" stroke-miterlimit="10" stroke-width="0.5px" d="M2225.93,767.882c-699.232-93.68-1526.767-93.68-2226,0"/>
			<path fill="none" stroke="#000000" vector-effect="non-scaling-stroke" stroke-miterlimit="10" stroke-width="0.5px" d="M2225.93,799.882c-699.232-112.416-1526.767-112.416-2226,0"/>
			<path fill="none" stroke="#000000" vector-effect="non-scaling-stroke" stroke-miterlimit="10" stroke-width="0.5px" d="M2225.93,831.882c-699.232-131.152-1526.767-131.152-2226,0"/>
			<path fill="none" stroke="#000000" vector-effect="non-scaling-stroke" stroke-miterlimit="10" stroke-width="0.5px" d="M2225.93,863.882c-699.232-149.888-1526.767-149.888-2226,0"/>
			<path fill="none" stroke="#000000" vector-effect="non-scaling-stroke" stroke-miterlimit="10" stroke-width="0.5px" d="M2225.93,895.882c-699.232-168.624-1526.767-168.624-2226,0"/>
			<path fill="none" stroke="#000000" vector-effect="non-scaling-stroke" stroke-miterlimit="10" stroke-width="0.5px" d="M2225.93,927.882c-699.232-187.36-1526.767-187.36-2226,0"/>
			<path fill="none" stroke="#000000" vector-effect="non-scaling-stroke" stroke-miterlimit="10" stroke-width="0.5px" d="M2225.93,959.882c-699.232-206.096-1526.767-206.096-2226,0"/>
			<path fill="none" stroke="#000000" vector-effect="non-scaling-stroke" stroke-miterlimit="10" stroke-width="0.5px" d="M2225.93,991.882c-699.232-224.832-1526.767-224.832-2226,0"/>
			<path fill="none" stroke="#000000" vector-effect="non-scaling-stroke" stroke-miterlimit="10" stroke-width="0.5px" d="M2225.93,1023.882c-699.232-243.568-1526.767-243.568-2226,0"/>
			<path fill="none" stroke="#000000" vector-effect="non-scaling-stroke" stroke-miterlimit="10" stroke-width="0.5px" d="M2225.93,1055.882c-699.232-262.304-1526.767-262.304-2226,0"/>
			<path fill="none" stroke="#000000" vector-effect="non-scaling-stroke" stroke-miterlimit="10" stroke-width="0.5px" d="M2225.93,1087.882c-699.232-281.04-1526.767-281.04-2226,0"/>
			<path fill="none" stroke="#000000" vector-effect="non-scaling-stroke" stroke-miterlimit="10" stroke-width="0.5px" d="M2225.93,1119.882c-699.232-299.776-1526.767-299.776-2226,0"/>
			<path fill="none" stroke="#000000" vector-effect="non-scaling-stroke" stroke-miterlimit="10" stroke-width="0.5px" d="M2225.93,1151.882c-699.232-318.512-1526.767-318.512-2226,0"/>
			<path fill="none" stroke="#000000" vector-effect="non-scaling-stroke" stroke-miterlimit="10" stroke-width="0.5px" d="M2225.93,1183.882c-699.232-337.248-1526.767-337.248-2226,0"/>
			<path fill="none" stroke="#000000" vector-effect="non-scaling-stroke" stroke-miterlimit="10" stroke-width="0.5px" d="M2225.93,1215.882c-699.232-355.984-1526.767-355.984-2226,0"/>
		</g>
	</g>
</g>
<g display="none">
	<g display="inline">
		<line fill="none" stroke="#000000" vector-effect="non-scaling-stroke" stroke-miterlimit="10" stroke-width="0.5px" x1="0.43" y1="0.382" x2="0.43" y2="1215.382"/>
		<line fill="none" stroke="#000000" vector-effect="non-scaling-stroke" stroke-miterlimit="10" stroke-width="0.5px" x1="32.43" y1="0.382" x2="32.43" y2="1215.382"/>
		<line fill="none" stroke="#000000" vector-effect="non-scaling-stroke" stroke-miterlimit="10" stroke-width="0.5px" x1="64.43" y1="0.382" x2="64.43" y2="1215.382"/>
		<line fill="none" stroke="#000000" vector-effect="non-scaling-stroke" stroke-miterlimit="10" stroke-width="0.5px" x1="96.43" y1="0.382" x2="96.43" y2="1215.382"/>
		<line fill="none" stroke="#000000" vector-effect="non-scaling-stroke" stroke-miterlimit="10" stroke-width="0.5px" x1="127.43" y1="0.382" x2="127.43" y2="1215.382"/>
		<line fill="none" stroke="#000000" vector-effect="non-scaling-stroke" stroke-miterlimit="10" stroke-width="0.5px" x1="159.43" y1="0.382" x2="159.43" y2="1215.382"/>
		<line fill="none" stroke="#000000" vector-effect="non-scaling-stroke" stroke-miterlimit="10" stroke-width="0.5px" x1="191.43" y1="0.382" x2="191.43" y2="1215.382"/>
		<line fill="none" stroke="#000000" vector-effect="non-scaling-stroke" stroke-miterlimit="10" stroke-width="0.5px" x1="223.43" y1="0.382" x2="223.43" y2="1215.382"/>
		<line fill="none" stroke="#000000" vector-effect="non-scaling-stroke" stroke-miterlimit="10" stroke-width="0.5px" x1="255.43" y1="0.382" x2="255.43" y2="1215.382"/>
		<line fill="none" stroke="#000000" vector-effect="non-scaling-stroke" stroke-miterlimit="10" stroke-width="0.5px" x1="286.43" y1="0.382" x2="286.43" y2="1215.382"/>
		<line fill="none" stroke="#000000" vector-effect="non-scaling-stroke" stroke-miterlimit="10" stroke-width="0.5px" x1="318.43" y1="0.382" x2="318.43" y2="1215.382"/>
		<line fill="none" stroke="#000000" vector-effect="non-scaling-stroke" stroke-miterlimit="10" stroke-width="0.5px" x1="350.43" y1="0.382" x2="350.43" y2="1215.382"/>
		<line fill="none" stroke="#000000" vector-effect="non-scaling-stroke" stroke-miterlimit="10" stroke-width="0.5px" x1="382.43" y1="0.382" x2="382.43" y2="1215.382"/>
		<line fill="none" stroke="#000000" vector-effect="non-scaling-stroke" stroke-miterlimit="10" stroke-width="0.5px" x1="413.43" y1="0.382" x2="413.43" y2="1215.382"/>
		<line fill="none" stroke="#000000" vector-effect="non-scaling-stroke" stroke-miterlimit="10" stroke-width="0.5px" x1="445.43" y1="0.382" x2="445.43" y2="1215.382"/>
		<line fill="none" stroke="#000000" vector-effect="non-scaling-stroke" stroke-miterlimit="10" stroke-width="0.5px" x1="477.43" y1="0.382" x2="477.43" y2="1215.382"/>
		<line fill="none" stroke="#000000" vector-effect="non-scaling-stroke" stroke-miterlimit="10" stroke-width="0.5px" x1="509.43" y1="0.382" x2="509.43" y2="1215.382"/>
		<line fill="none" stroke="#000000" vector-effect="non-scaling-stroke" stroke-miterlimit="10" stroke-width="0.5px" x1="541.43" y1="0.382" x2="541.43" y2="1215.382"/>
		<line fill="none" stroke="#000000" vector-effect="non-scaling-stroke" stroke-miterlimit="10" stroke-width="0.5px" x1="572.43" y1="0.382" x2="572.43" y2="1215.382"/>
		<line fill="none" stroke="#000000" vector-effect="non-scaling-stroke" stroke-miterlimit="10" stroke-width="0.5px" x1="604.43" y1="0.382" x2="604.43" y2="1215.382"/>
		<line fill="none" stroke="#000000" vector-effect="non-scaling-stroke" stroke-miterlimit="10" stroke-width="0.5px" x1="636.43" y1="0.382" x2="636.43" y2="1215.382"/>
		<line fill="none" stroke="#000000" vector-effect="non-scaling-stroke" stroke-miterlimit="10" stroke-width="0.5px" x1="668.43" y1="0.382" x2="668.43" y2="1215.382"/>
		<line fill="none" stroke="#000000" vector-effect="non-scaling-stroke" stroke-miterlimit="10" stroke-width="0.5px" x1="699.43" y1="0.382" x2="699.43" y2="1215.382"/>
		<line fill="none" stroke="#000000" vector-effect="non-scaling-stroke" stroke-miterlimit="10" stroke-width="0.5px" x1="731.43" y1="0.382" x2="731.43" y2="1215.382"/>
		<line fill="none" stroke="#000000" vector-effect="non-scaling-stroke" stroke-miterlimit="10" stroke-width="0.5px" x1="763.43" y1="0.382" x2="763.43" y2="1215.382"/>
		<line fill="none" stroke="#000000" vector-effect="non-scaling-stroke" stroke-miterlimit="10" stroke-width="0.5px" x1="795.43" y1="0.382" x2="795.43" y2="1215.382"/>
		<line fill="none" stroke="#000000" vector-effect="non-scaling-stroke" stroke-miterlimit="10" stroke-width="0.5px" x1="827.43" y1="0.382" x2="827.43" y2="1215.382"/>
		<line fill="none" stroke="#000000" vector-effect="non-scaling-stroke" stroke-miterlimit="10" stroke-width="0.5px" x1="858.43" y1="0.382" x2="858.43" y2="1215.382"/>
		<line fill="none" stroke="#000000" vector-effect="non-scaling-stroke" stroke-miterlimit="10" stroke-width="0.5px" x1="890.43" y1="0.382" x2="890.43" y2="1215.382"/>
		<line fill="none" stroke="#000000" vector-effect="non-scaling-stroke" stroke-miterlimit="10" stroke-width="0.5px" x1="922.43" y1="0.382" x2="922.43" y2="1215.382"/>
		<line fill="none" stroke="#000000" vector-effect="non-scaling-stroke" stroke-miterlimit="10" stroke-width="0.5px" x1="954.43" y1="0.382" x2="954.43" y2="1215.382"/>
		<line fill="none" stroke="#000000" vector-effect="non-scaling-stroke" stroke-miterlimit="10" stroke-width="0.5px" x1="985.43" y1="0.382" x2="985.43" y2="1215.382"/>
		<line fill="none" stroke="#000000" vector-effect="non-scaling-stroke" stroke-miterlimit="10" stroke-width="0.5px" x1="1017.43" y1="0.382" x2="1017.43" y2="1215.382"/>
		<line fill="none" stroke="#000000" vector-effect="non-scaling-stroke" stroke-miterlimit="10" stroke-width="0.5px" x1="1049.43" y1="0.382" x2="1049.43" y2="1215.382"/>
		<line fill="none" stroke="#000000" vector-effect="non-scaling-stroke" stroke-miterlimit="10" stroke-width="0.5px" x1="1081.43" y1="0.382" x2="1081.43" y2="1215.382"/>
		<line fill="none" stroke="#000000" vector-effect="non-scaling-stroke" stroke-miterlimit="10" stroke-width="0.5px" x1="1112.43" y1="0.382" x2="1112.43" y2="1215.382"/>
		<line fill="none" stroke="#000000" vector-effect="non-scaling-stroke" stroke-miterlimit="10" stroke-width="0.5px" x1="1144.43" y1="0.382" x2="1144.43" y2="1215.382"/>
		<line fill="none" stroke="#000000" vector-effect="non-scaling-stroke" stroke-miterlimit="10" stroke-width="0.5px" x1="1176.43" y1="0.382" x2="1176.43" y2="1215.382"/>
		<line fill="none" stroke="#000000" vector-effect="non-scaling-stroke" stroke-miterlimit="10" stroke-width="0.5px" x1="1208.43" y1="0.382" x2="1208.43" y2="1215.382"/>
		<line fill="none" stroke="#000000" vector-effect="non-scaling-stroke" stroke-miterlimit="10" stroke-width="0.5px" x1="1240.43" y1="0.382" x2="1240.43" y2="1215.382"/>
		<line fill="none" stroke="#000000" vector-effect="non-scaling-stroke" stroke-miterlimit="10" stroke-width="0.5px" x1="1271.43" y1="0.382" x2="1271.43" y2="1215.382"/>
		<line fill="none" stroke="#000000" vector-effect="non-scaling-stroke" stroke-miterlimit="10" stroke-width="0.5px" x1="1303.43" y1="0.382" x2="1303.43" y2="1215.382"/>
		<line fill="none" stroke="#000000" vector-effect="non-scaling-stroke" stroke-miterlimit="10" stroke-width="0.5px" x1="1335.43" y1="0.382" x2="1335.43" y2="1215.382"/>
		<line fill="none" stroke="#000000" vector-effect="non-scaling-stroke" stroke-miterlimit="10" stroke-width="0.5px" x1="1367.43" y1="0.382" x2="1367.43" y2="1215.382"/>
		<line fill="none" stroke="#000000" vector-effect="non-scaling-stroke" stroke-miterlimit="10" stroke-width="0.5px" x1="1398.43" y1="0.382" x2="1398.43" y2="1215.382"/>
		<line fill="none" stroke="#000000" vector-effect="non-scaling-stroke" stroke-miterlimit="10" stroke-width="0.5px" x1="1430.43" y1="0.382" x2="1430.43" y2="1215.382"/>
		<line fill="none" stroke="#000000" vector-effect="non-scaling-stroke" stroke-miterlimit="10" stroke-width="0.5px" x1="1462.43" y1="0.382" x2="1462.43" y2="1215.382"/>
		<line fill="none" stroke="#000000" vector-effect="non-scaling-stroke" stroke-miterlimit="10" stroke-width="0.5px" x1="1494.43" y1="0.382" x2="1494.43" y2="1215.382"/>
		<line fill="none" stroke="#000000" vector-effect="non-scaling-stroke" stroke-miterlimit="10" stroke-width="0.5px" x1="1526.43" y1="0.382" x2="1526.43" y2="1215.382"/>
		<line fill="none" stroke="#000000" vector-effect="non-scaling-stroke" stroke-miterlimit="10" stroke-width="0.5px" x1="1557.43" y1="0.382" x2="1557.43" y2="1215.382"/>
		<line fill="none" stroke="#000000" vector-effect="non-scaling-stroke" stroke-miterlimit="10" stroke-width="0.5px" x1="1589.43" y1="0.382" x2="1589.43" y2="1215.382"/>
		<line fill="none" stroke="#000000" vector-effect="non-scaling-stroke" stroke-miterlimit="10" stroke-width="0.5px" x1="1621.43" y1="0.382" x2="1621.43" y2="1215.382"/>
		<line fill="none" stroke="#000000" vector-effect="non-scaling-stroke" stroke-miterlimit="10" stroke-width="0.5px" x1="1653.43" y1="0.382" x2="1653.43" y2="1215.382"/>
		<line fill="none" stroke="#000000" vector-effect="non-scaling-stroke" stroke-miterlimit="10" stroke-width="0.5px" x1="1684.43" y1="0.382" x2="1684.43" y2="1215.382"/>
		<line fill="none" stroke="#000000" vector-effect="non-scaling-stroke" stroke-miterlimit="10" stroke-width="0.5px" x1="1716.43" y1="0.382" x2="1716.43" y2="1215.382"/>
		<line fill="none" stroke="#000000" vector-effect="non-scaling-stroke" stroke-miterlimit="10" stroke-width="0.5px" x1="1748.43" y1="0.382" x2="1748.43" y2="1215.382"/>
		<line fill="none" stroke="#000000" vector-effect="non-scaling-stroke" stroke-miterlimit="10" stroke-width="0.5px" x1="1780.43" y1="0.382" x2="1780.43" y2="1215.382"/>
		<line fill="none" stroke="#000000" vector-effect="non-scaling-stroke" stroke-miterlimit="10" stroke-width="0.5px" x1="1812.43" y1="0.382" x2="1812.43" y2="1215.382"/>
		<line fill="none" stroke="#000000" vector-effect="non-scaling-stroke" stroke-miterlimit="10" stroke-width="0.5px" x1="1843.43" y1="0.382" x2="1843.43" y2="1215.382"/>
		<line fill="none" stroke="#000000" vector-effect="non-scaling-stroke" stroke-miterlimit="10" stroke-width="0.5px" x1="1875.43" y1="0.382" x2="1875.43" y2="1215.382"/>
		<line fill="none" stroke="#000000" vector-effect="non-scaling-stroke" stroke-miterlimit="10" stroke-width="0.5px" x1="1907.43" y1="0.382" x2="1907.43" y2="1215.382"/>
		<line fill="none" stroke="#000000" vector-effect="non-scaling-stroke" stroke-miterlimit="10" stroke-width="0.5px" x1="1939.43" y1="0.382" x2="1939.43" y2="1215.382"/>
		<line fill="none" stroke="#000000" vector-effect="non-scaling-stroke" stroke-miterlimit="10" stroke-width="0.5px" x1="1970.43" y1="0.382" x2="1970.43" y2="1215.382"/>
		<line fill="none" stroke="#000000" vector-effect="non-scaling-stroke" stroke-miterlimit="10" stroke-width="0.5px" x1="2002.43" y1="0.382" x2="2002.43" y2="1215.382"/>
		<line fill="none" stroke="#000000" vector-effect="non-scaling-stroke" stroke-miterlimit="10" stroke-width="0.5px" x1="2034.43" y1="0.382" x2="2034.43" y2="1215.382"/>
		<line fill="none" stroke="#000000" vector-effect="non-scaling-stroke" stroke-miterlimit="10" stroke-width="0.5px" x1="2066.43" y1="0.382" x2="2066.43" y2="1215.382"/>
		<line fill="none" stroke="#000000" vector-effect="non-scaling-stroke" stroke-miterlimit="10" stroke-width="0.5px" x1="2098.43" y1="0.382" x2="2098.43" y2="1215.382"/>
		<line fill="none" stroke="#000000" vector-effect="non-scaling-stroke" stroke-miterlimit="10" stroke-width="0.5px" x1="2129.43" y1="0.382" x2="2129.43" y2="1215.382"/>
		<line fill="none" stroke="#000000" vector-effect="non-scaling-stroke" stroke-miterlimit="10" stroke-width="0.5px" x1="2161.43" y1="0.382" x2="2161.43" y2="1215.382"/>
		<line fill="none" stroke="#000000" vector-effect="non-scaling-stroke" stroke-miterlimit="10" stroke-width="0.5px" x1="2193.43" y1="0.382" x2="2193.43" y2="1215.382"/>
		<line fill="none" stroke="#000000" vector-effect="non-scaling-stroke" stroke-miterlimit="10" stroke-width="0.5px" x1="2225.43" y1="0.382" x2="2225.43" y2="1215.382"/>
	</g>
	<g display="inline">
		<line fill="none" stroke="#000000" vector-effect="non-scaling-stroke" stroke-miterlimit="10" stroke-width="0.5px" x1="2225.93" y1="-0.118" x2="-0.07" y2="-0.118"/>
		<line fill="none" stroke="#000000" vector-effect="non-scaling-stroke" stroke-miterlimit="10" stroke-width="0.5px" x1="2225.93" y1="31.882" x2="-0.07" y2="31.882"/>
		<line fill="none" stroke="#000000" vector-effect="non-scaling-stroke" stroke-miterlimit="10" stroke-width="0.5px" x1="2225.93" y1="63.882" x2="-0.07" y2="63.882"/>
		<line fill="none" stroke="#000000" vector-effect="non-scaling-stroke" stroke-miterlimit="10" stroke-width="0.5px" x1="2225.93" y1="95.882" x2="-0.07" y2="95.882"/>
		<line fill="none" stroke="#000000" vector-effect="non-scaling-stroke" stroke-miterlimit="10" stroke-width="0.5px" x1="2225.93" y1="127.882" x2="-0.07" y2="127.882"/>
		<line fill="none" stroke="#000000" vector-effect="non-scaling-stroke" stroke-miterlimit="10" stroke-width="0.5px" x1="2225.93" y1="159.882" x2="-0.07" y2="159.882"/>
		<line fill="none" stroke="#000000" vector-effect="non-scaling-stroke" stroke-miterlimit="10" stroke-width="0.5px" x1="2225.93" y1="191.882" x2="-0.07" y2="191.882"/>
		<line fill="none" stroke="#000000" vector-effect="non-scaling-stroke" stroke-miterlimit="10" stroke-width="0.5px" x1="2225.93" y1="223.882" x2="-0.07" y2="223.882"/>
		<line fill="none" stroke="#000000" vector-effect="non-scaling-stroke" stroke-miterlimit="10" stroke-width="0.5px" x1="2225.93" y1="255.882" x2="-0.07" y2="255.882"/>
		<line fill="none" stroke="#000000" vector-effect="non-scaling-stroke" stroke-miterlimit="10" stroke-width="0.5px" x1="2225.93" y1="287.882" x2="-0.07" y2="287.882"/>
		<line fill="none" stroke="#000000" vector-effect="non-scaling-stroke" stroke-miterlimit="10" stroke-width="0.5px" x1="2225.93" y1="319.882" x2="-0.07" y2="319.882"/>
		<line fill="none" stroke="#000000" vector-effect="non-scaling-stroke" stroke-miterlimit="10" stroke-width="0.5px" x1="2225.93" y1="351.882" x2="-0.07" y2="351.882"/>
		<line fill="none" stroke="#000000" vector-effect="non-scaling-stroke" stroke-miterlimit="10" stroke-width="0.5px" x1="2225.93" y1="383.882" x2="-0.07" y2="383.882"/>
		<line fill="none" stroke="#000000" vector-effect="non-scaling-stroke" stroke-miterlimit="10" stroke-width="0.5px" x1="2225.93" y1="415.882" x2="-0.07" y2="415.882"/>
		<line fill="none" stroke="#000000" vector-effect="non-scaling-stroke" stroke-miterlimit="10" stroke-width="0.5px" x1="2225.93" y1="447.882" x2="-0.07" y2="447.882"/>
		<line fill="none" stroke="#000000" vector-effect="non-scaling-stroke" stroke-miterlimit="10" stroke-width="0.5px" x1="2225.93" y1="479.882" x2="-0.07" y2="479.882"/>
		<line fill="none" stroke="#000000" vector-effect="non-scaling-stroke" stroke-miterlimit="10" stroke-width="0.5px" x1="2225.93" y1="511.882" x2="-0.07" y2="511.882"/>
		<line fill="none" stroke="#000000" vector-effect="non-scaling-stroke" stroke-miterlimit="10" stroke-width="0.5px" x1="2225.93" y1="543.882" x2="-0.07" y2="543.882"/>
		<line fill="none" stroke="#000000" vector-effect="non-scaling-stroke" stroke-miterlimit="10" stroke-width="0.5px" x1="2225.93" y1="575.882" x2="-0.07" y2="575.882"/>
		<line fill="none" stroke="#000000" vector-effect="non-scaling-stroke" stroke-miterlimit="10" stroke-width="0.5px" x1="2225.93" y1="607.882" x2="-0.07" y2="607.882"/>
		<line fill="none" stroke="#000000" vector-effect="non-scaling-stroke" stroke-miterlimit="10" stroke-width="0.5px" x1="2225.93" y1="639.882" x2="-0.07" y2="639.882"/>
		<line fill="none" stroke="#000000" vector-effect="non-scaling-stroke" stroke-miterlimit="10" stroke-width="0.5px" x1="2225.93" y1="671.882" x2="-0.07" y2="671.882"/>
		<line fill="none" stroke="#000000" vector-effect="non-scaling-stroke" stroke-miterlimit="10" stroke-width="0.5px" x1="2225.93" y1="703.882" x2="-0.07" y2="703.882"/>
		<line fill="none" stroke="#000000" vector-effect="non-scaling-stroke" stroke-miterlimit="10" stroke-width="0.5px" x1="2225.93" y1="735.882" x2="-0.07" y2="735.882"/>
		<line fill="none" stroke="#000000" vector-effect="non-scaling-stroke" stroke-miterlimit="10" stroke-width="0.5px" x1="2225.93" y1="767.882" x2="-0.07" y2="767.882"/>
		<line fill="none" stroke="#000000" vector-effect="non-scaling-stroke" stroke-miterlimit="10" stroke-width="0.5px" x1="2225.93" y1="799.882" x2="-0.07" y2="799.882"/>
		<line fill="none" stroke="#000000" vector-effect="non-scaling-stroke" stroke-miterlimit="10" stroke-width="0.5px" x1="2225.93" y1="831.882" x2="-0.07" y2="831.882"/>
		<line fill="none" stroke="#000000" vector-effect="non-scaling-stroke" stroke-miterlimit="10" stroke-width="0.5px" x1="2225.93" y1="863.882" x2="-0.07" y2="863.882"/>
		<line fill="none" stroke="#000000" vector-effect="non-scaling-stroke" stroke-miterlimit="10" stroke-width="0.5px" x1="2225.93" y1="895.882" x2="-0.07" y2="895.882"/>
		<line fill="none" stroke="#000000" vector-effect="non-scaling-stroke" stroke-miterlimit="10" stroke-width="0.5px" x1="2225.93" y1="927.882" x2="-0.07" y2="927.882"/>
		<line fill="none" stroke="#000000" vector-effect="non-scaling-stroke" stroke-miterlimit="10" stroke-width="0.5px" x1="2225.93" y1="959.882" x2="-0.07" y2="959.882"/>
		<line fill="none" stroke="#000000" vector-effect="non-scaling-stroke" stroke-miterlimit="10" stroke-width="0.5px" x1="2225.93" y1="991.882" x2="-0.07" y2="991.882"/>
		<line fill="none" stroke="#000000" vector-effect="non-scaling-stroke" stroke-miterlimit="10" stroke-width="0.5px" x1="2225.93" y1="1023.882" x2="-0.07" y2="1023.882"/>
		<line fill="none" stroke="#000000" vector-effect="non-scaling-stroke" stroke-miterlimit="10" stroke-width="0.5px" x1="2225.93" y1="1055.882" x2="-0.07" y2="1055.882"/>
		<line fill="none" stroke="#000000" vector-effect="non-scaling-stroke" stroke-miterlimit="10" stroke-width="0.5px" x1="2225.93" y1="1087.882" x2="-0.07" y2="1087.882"/>
		<line fill="none" stroke="#000000" vector-effect="non-scaling-stroke" stroke-miterlimit="10" stroke-width="0.5px" x1="2225.93" y1="1119.882" x2="-0.07" y2="1119.882"/>
		<line fill="none" stroke="#000000" vector-effect="non-scaling-stroke" stroke-miterlimit="10" stroke-width="0.5px" x1="2225.93" y1="1151.882" x2="-0.07" y2="1151.882"/>
		<line fill="none" stroke="#000000" vector-effect="non-scaling-stroke" stroke-miterlimit="10" stroke-width="0.5px" x1="2225.93" y1="1183.882" x2="-0.07" y2="1183.882"/>
		<line fill="none" stroke="#000000" vector-effect="non-scaling-stroke" stroke-miterlimit="10" stroke-width="0.5px" x1="2225.93" y1="1215.882" x2="-0.07" y2="1215.882"/>
	</g>
</g>
</svg>