<?xml version="1.0" encoding="utf-8"?>
<!-- Generator: Adobe Illustrator 15.0.2, SVG Export Plug-In . SVG Version: 6.00 Build 0)  -->
<!DOCTYPE svg PUBLIC "-//W3C//DTD SVG 1.1//EN" "http://www.w3.org/Graphics/SVG/1.1/DTD/svg11.dtd">
<svg version="1.1" id="Layer_1" xmlns="http://www.w3.org/2000/svg" xmlns:xlink="http://www.w3.org/1999/xlink" x="0px" y="0px"
	 width="75px" height="74.999px" viewBox="0 0 75 74.999" enable-background="new 0 0 75 74.999" xml:space="preserve">
<polygon display="none" fill="#C45379" points="26.004,54.829 26.004,25.813 28.205,27.048 28.205,51.018 52.153,37.192 
	26.004,22.095 26.004,19.533 56.554,37.192 "/>
<circle fill="none" stroke="#FFFFFF" stroke-width="1.6" stroke-miterlimit="10" cx="37.808" cy="37.191" r="35.621"/>
<circle opacity="0.65" fill="none" stroke="#FFFFFF" stroke-width="1.6" stroke-miterlimit="10" cx="37.807" cy="37.191" r="29.081"/>
<polyline display="none" fill="none" stroke="#C45379" stroke-width="2" stroke-miterlimit="10" points="26.912,20.218 
	55.381,36.466 26.912,52.714 26.912,27.246 "/>
<polygon display="none" fill="#C45379" points="25.912,55.174 25.912,25.158 27.912,26.158 27.912,51.73 53.363,37.204 
	25.875,21.458 25.875,19.208 57.398,37.204 "/>
<polygon fill="#FFFFFF" stroke="#FFFFFF" stroke-miterlimit="10" points="26.112,25.481 27.711,26.281 27.711,52.074 53.767,37.204 
	26.075,21.343 26.075,19.552 56.995,37.204 26.112,54.83 "/>
</svg>
