<?xml version="1.0" encoding="utf-8"?>
<!-- Generator: Adobe Illustrator 15.0.2, SVG Export Plug-In . SVG Version: 6.00 Build 0)  -->
<!DOCTYPE svg PUBLIC "-//W3C//DTD SVG 1.1//EN" "http://www.w3.org/Graphics/SVG/1.1/DTD/svg11.dtd">
<svg version="1.1" id="Layer_1" xmlns="http://www.w3.org/2000/svg" xmlns:xlink="http://www.w3.org/1999/xlink" x="0px" y="0px"
	 width="29px" height="32px" viewBox="0 0 29 32" enable-background="new 0 0 29 32" xml:space="preserve">
<g>
	<g>
		<path fill="#B7BDBC" d="M26.525,13.341l-5.422,10.453c-1.502-2.748-1.045-6.272,1.326-8.535
			C23.561,14.179,24.992,13.513,26.525,13.341 M27.326,12.046c-2.07,0-4.145,0.766-5.76,2.309c-3.332,3.18-3.455,8.459-0.275,11.793
			l7.266-14.011C28.148,12.077,27.736,12.046,27.326,12.046L27.326,12.046z"/>
		<path fill="#B7BDBC" d="M25.175,7.857c0.021,0,0.039,0,0.06,0l-2.168,3.897l1.793-0.633l2.369-4.351
			c-0.68-0.108-1.367-0.163-2.054-0.163l0,0c-3.165,0-6.339,1.154-8.835,3.485c-5.229,4.88-5.508,13.074-0.629,18.305l2.6-4.881
			l-0.469-1.779l-2.343,4.398c-3.188-4.688-2.575-11.146,1.694-15.13C19.367,8.976,22.201,7.857,25.175,7.857"/>
		<path fill="#B7BDBC" d="M23.775,2.25c0.297,0,0.594,0.008,0.891,0.023L22.93,5.534l1.575-0.299l2.134-4.008
			C25.691,1.076,24.734,1,23.775,1l0,0c-4.412,0-8.835,1.608-12.314,4.858c-7.288,6.803-7.678,18.226-0.876,25.515l2.422-4.547
			l-0.854-1.057l-1.802,3.383c-5.099-6.771-4.368-16.471,1.963-22.381C15.438,3.855,19.507,2.25,23.775,2.25"/>
		<path fill="#B7BDBC" d="M1.71,9.306C0.766,8.451,0.567,7.042,1.239,5.958c0.372-0.601,0.955-1.021,1.642-1.182
			C3.568,4.615,4.277,4.73,4.877,5.101c0.137,0.085,0.266,0.183,0.385,0.29C6.207,6.247,6.405,7.654,5.733,8.74
			c-0.371,0.6-0.955,1.02-1.642,1.182c-0.688,0.161-1.396,0.046-1.996-0.325C1.958,9.511,1.829,9.413,1.71,9.306z"/>
	</g>
</g>
</svg>
