<?xml version="1.0" encoding="utf-8"?>
<!-- Generator: Adobe Illustrator 15.1.0, SVG Export Plug-In . SVG Version: 6.00 Build 0)  -->
<!DOCTYPE svg PUBLIC "-//W3C//DTD SVG 1.1//EN" "http://www.w3.org/Graphics/SVG/1.1/DTD/svg11.dtd">
<svg version="1.1" id="Layer_1" xmlns="http://www.w3.org/2000/svg" xmlns:xlink="http://www.w3.org/1999/xlink" x="0px" y="0px"
	 width="28px" height="34px" viewBox="0 0 28 34" enable-background="new 0 0 28 34" xml:space="preserve">
<g>
	<g>
		<g>
			<linearGradient id="SVGID_1_" gradientUnits="userSpaceOnUse" x1="21.7744" y1="34.5" x2="21.7744" y2="-0.2556">
				<stop  offset="0" style="stop-color:#4A7FE4"/>
				<stop  offset="1" style="stop-color:#68BAE3"/>
			</linearGradient>
			<circle fill="url(#SVGID_1_)" cx="21.775" cy="25.968" r="1.37"/>
		</g>
		<g>
			<linearGradient id="SVGID_2_" gradientUnits="userSpaceOnUse" x1="25.4707" y1="34.5" x2="25.4707" y2="-0.2556">
				<stop  offset="0" style="stop-color:#4A7FE4"/>
				<stop  offset="1" style="stop-color:#68BAE3"/>
			</linearGradient>
			<circle fill="url(#SVGID_2_)" cx="25.471" cy="20.969" r="1.37"/>
		</g>
		<g>
			<linearGradient id="SVGID_3_" gradientUnits="userSpaceOnUse" x1="26.6299" y1="34.5" x2="26.6299" y2="-0.2556">
				<stop  offset="0" style="stop-color:#4A7FE4"/>
				<stop  offset="1" style="stop-color:#68BAE3"/>
			</linearGradient>
			<circle fill="url(#SVGID_3_)" cx="26.63" cy="14.861" r="1.371"/>
		</g>
		<g>
			<linearGradient id="SVGID_4_" gradientUnits="userSpaceOnUse" x1="25.0244" y1="34.5" x2="25.0244" y2="-0.2556">
				<stop  offset="0" style="stop-color:#4A7FE4"/>
				<stop  offset="1" style="stop-color:#68BAE3"/>
			</linearGradient>
			<circle fill="url(#SVGID_4_)" cx="25.025" cy="8.856" r="1.37"/>
		</g>
		<g>
			<linearGradient id="SVGID_5_" gradientUnits="userSpaceOnUse" x1="20.9756" y1="34.5" x2="20.9756" y2="-0.2556">
				<stop  offset="0" style="stop-color:#4A7FE4"/>
				<stop  offset="1" style="stop-color:#68BAE3"/>
			</linearGradient>
			<circle fill="url(#SVGID_5_)" cx="20.975" cy="4.141" r="1.37"/>
		</g>
		<g>
			<linearGradient id="SVGID_6_" gradientUnits="userSpaceOnUse" x1="15.2803" y1="34.5" x2="15.2803" y2="-0.2556">
				<stop  offset="0" style="stop-color:#4A7FE4"/>
				<stop  offset="1" style="stop-color:#68BAE3"/>
			</linearGradient>
			<circle fill="url(#SVGID_6_)" cx="15.281" cy="1.65" r="1.37"/>
		</g>
		<g>
			<linearGradient id="SVGID_7_" gradientUnits="userSpaceOnUse" x1="9.0679" y1="34.5" x2="9.0679" y2="-0.2556">
				<stop  offset="0" style="stop-color:#4A7FE4"/>
				<stop  offset="1" style="stop-color:#68BAE3"/>
			</linearGradient>
			<circle fill="url(#SVGID_7_)" cx="9.068" cy="1.876" r="1.37"/>
		</g>
		<linearGradient id="SVGID_8_" gradientUnits="userSpaceOnUse" x1="12.8354" y1="34.5" x2="12.8354" y2="-0.2556">
			<stop  offset="0" style="stop-color:#4A7FE4"/>
			<stop  offset="1" style="stop-color:#68BAE3"/>
		</linearGradient>
		<path fill="url(#SVGID_8_)" d="M12.839,7.084c2.259,0,4.394,0.873,6.007,2.457c1.617,1.586,2.529,3.707,2.568,5.971
			c0.061,3.324-1.832,6.413-4.82,7.87c-1.131,0.552-2.344,0.843-3.604,0.864c-0.053,0.002-0.104,0.002-0.157,0.002
			c-2.259,0-4.392-0.873-6.007-2.457c-1.616-1.586-2.529-3.707-2.569-5.973c-0.06-3.208,1.657-6.156,4.477-7.693
			c1.223-0.665,2.55-1.014,3.947-1.039C12.734,7.084,12.787,7.084,12.839,7.084 M12.839,5.895c-0.06,0-0.118,0-0.179,0.001
			C11.031,5.925,9.504,6.352,8.166,7.08c-3.093,1.686-5.168,4.992-5.1,8.76c0.095,5.336,4.451,9.598,9.765,9.598
			c0.06,0,0.118,0,0.179-0.002c1.473-0.023,2.863-0.379,4.105-0.982c3.307-1.613,5.559-5.037,5.488-8.961
			C22.509,10.155,18.154,5.895,12.839,5.895L12.839,5.895z"/>
		<linearGradient id="SVGID_9_" gradientUnits="userSpaceOnUse" x1="9.2534" y1="34.5" x2="9.2534" y2="-0.2556">
			<stop  offset="0" style="stop-color:#4A7FE4"/>
			<stop  offset="1" style="stop-color:#68BAE3"/>
		</linearGradient>
		<path fill="url(#SVGID_9_)" d="M6.258,6.315l5.158,10.015l1.178-0.534L6.766,4.482l0,0c-4.004,2.181-6.688,6.46-6.6,11.334
			c0.123,6.905,5.758,12.417,12.635,12.417c0.077,0,0.153,0,0.23-0.002c1.907-0.031,3.706-0.486,5.312-1.271L17.8,25.833
			l-1.243,0.476c-1.136,0.399-2.325,0.61-3.549,0.633c-0.069,0-0.138,0.002-0.208,0.002c-2.988,0-5.811-1.153-7.946-3.25
			c-2.138-2.098-3.345-4.901-3.398-7.897C1.389,11.994,3.201,8.471,6.258,6.315"/>
		<linearGradient id="SVGID_10_" gradientUnits="userSpaceOnUse" x1="12.835" y1="34.5" x2="12.835" y2="-0.2556">
			<stop  offset="0" style="stop-color:#4A7FE4"/>
			<stop  offset="1" style="stop-color:#68BAE3"/>
		</linearGradient>
		<path fill="url(#SVGID_10_)" d="M12.835,30.708l2.347,2.042H10.49L12.835,30.708 M12.835,29.051L7.148,34h11.374L12.835,29.051
			L12.835,29.051z"/>
	</g>
</g>
</svg>
