<?xml version="1.0" encoding="utf-8"?>
<!-- Generator: Adobe Illustrator 15.0.2, SVG Export Plug-In . SVG Version: 6.00 Build 0)  -->
<!DOCTYPE svg PUBLIC "-//W3C//DTD SVG 1.1//EN" "http://www.w3.org/Graphics/SVG/1.1/DTD/svg11.dtd">
<svg version="1.1" id="Layer_1" xmlns="http://www.w3.org/2000/svg" xmlns:xlink="http://www.w3.org/1999/xlink" x="0px" y="0px"
	 width="32px" height="34px" viewBox="0 0 32 34" enable-background="new 0 0 32 34" xml:space="preserve">
<g>
	<g>
		<g>
			<path fill="#77807f" d="M17.975,28.169l-0.49-1.374l5.639-2.008l0.488,1.374L17.975,28.169z M10.217,25.803L6.52,21.004
				l1.155-0.891l3.697,4.8L10.217,25.803z M26.645,19.309l-0.164-5.875l1.457-0.041l0.166,5.875L26.645,19.309z M7.736,13.875
				L6.533,13.05L9.83,8.236l1.203,0.824L7.736,13.875z M22.438,8.606l-5.621-1.654l0.412-1.399l5.619,1.654L22.438,8.606z"/>
		</g>
		<path fill="#77807f" d="M4.969,13.657c1.973,0,3.577,1.605,3.577,3.577c0,1.972-1.604,3.575-3.577,3.575
			c-1.973,0-3.577-1.604-3.577-3.575C1.392,15.262,2.996,13.657,4.969,13.657 M4.969,12.407c-2.666,0-4.827,2.161-4.827,4.827
			c0,2.667,2.161,4.825,4.827,4.825c2.665,0,4.827-2.158,4.827-4.825C9.796,14.568,7.634,12.407,4.969,12.407L4.969,12.407z"/>
		<path fill="#77807f" d="M13.604,24.941c1.972,0,3.576,1.604,3.576,3.578c0,1.973-1.604,3.575-3.576,3.575
			c-1.973,0-3.577-1.604-3.577-3.575S11.632,24.941,13.604,24.941 M13.604,23.691c-2.666,0-4.827,2.162-4.827,4.828
			s2.161,4.825,4.827,4.825s4.826-2.159,4.826-4.825S16.271,23.691,13.604,23.691L13.604,23.691z"/>
		<path fill="#77807f" d="M27.032,19.965c1.972,0,3.575,1.605,3.575,3.577s-1.604,3.576-3.575,3.576
			c-1.972,0-3.576-1.604-3.576-3.576S25.061,19.965,27.032,19.965 M27.032,18.715c-2.666,0-4.826,2.161-4.826,4.827
			s2.16,4.826,4.826,4.826s4.825-2.16,4.825-4.826S29.698,18.715,27.032,18.715L27.032,18.715z"/>
		<path fill="#77807f" d="M26.587,5.827c1.972,0,3.576,1.604,3.576,3.576c0,1.973-1.604,3.577-3.576,3.577
			c-1.974,0-3.578-1.604-3.578-3.577C23.009,7.432,24.613,5.827,26.587,5.827 M26.587,4.577c-2.666,0-4.828,2.161-4.828,4.826
			c0,2.666,2.162,4.827,4.828,4.827s4.826-2.161,4.826-4.827C31.413,6.738,29.253,4.577,26.587,4.577L26.587,4.577z"/>
		<path fill="#77807f" d="M13.028,1.907c1.973,0,3.578,1.604,3.578,3.576c0,1.973-1.604,3.577-3.578,3.577
			c-1.972,0-3.576-1.604-3.576-3.577C9.452,3.512,11.057,1.907,13.028,1.907 M13.028,0.657c-2.666,0-4.826,2.16-4.826,4.826
			s2.16,4.827,4.826,4.827s4.828-2.161,4.828-4.827S15.694,0.657,13.028,0.657L13.028,0.657z"/>
		<circle fill="#77807f" cx="4.969" cy="17.234" r="1.521"/>
		<circle fill="#77807f" cx="13.604" cy="28.52" r="1.52"/>
		<circle fill="#77807f" cx="27.032" cy="23.542" r="1.521"/>
		<circle fill="#77807f" cx="26.586" cy="9.404" r="1.521"/>
		<circle fill="#77807f" cx="13.029" cy="5.484" r="1.521"/>
	</g>
</g>
</svg>
