<?xml version="1.0" encoding="utf-8"?>
<!-- Generator: Adobe Illustrator 15.1.0, SVG Export Plug-In . SVG Version: 6.00 Build 0)  -->
<!DOCTYPE svg PUBLIC "-//W3C//DTD SVG 1.1//EN" "http://www.w3.org/Graphics/SVG/1.1/DTD/svg11.dtd">
<svg version="1.1" id="Layer_1" xmlns="http://www.w3.org/2000/svg" xmlns:xlink="http://www.w3.org/1999/xlink" x="0px" y="0px"
	 width="42px" height="24px" viewBox="0 0 42 24" enable-background="new 0 0 42 24" xml:space="preserve">
<g>
	<g>
		<linearGradient id="SVGID_1_" gradientUnits="userSpaceOnUse" x1="32.0947" y1="-1" x2="32.0947" y2="25.0108">
			<stop  offset="0" style="stop-color:#EB9B7B"/>
			<stop  offset="1" style="stop-color:#E28890"/>
		</linearGradient>
		<path fill="url(#SVGID_1_)" d="M40.835,1.307V22.75H23.439V12.476l-1.25-0.225V24H42V0.057l0,0H22.189v8.189l1.25,0.845V1.307
			H40.835"/>
		<linearGradient id="SVGID_2_" gradientUnits="userSpaceOnUse" x1="32.1367" y1="-1" x2="32.1367" y2="25.0108">
			<stop  offset="0" style="stop-color:#EB9B7B"/>
			<stop  offset="1" style="stop-color:#E28890"/>
		</linearGradient>
		<path fill="url(#SVGID_2_)" d="M37.65,4.491v15.06H26.5v-6.596l-1.126-0.198v8.044H38.9V3.241l0,0H25.374v7.338l1.126,0.375V4.491
			H37.65"/>
		<linearGradient id="SVGID_3_" gradientUnits="userSpaceOnUse" x1="9.2949" y1="-1" x2="9.2949" y2="25.0108">
			<stop  offset="0" style="stop-color:#EB9B7B"/>
			<stop  offset="1" style="stop-color:#E28890"/>
		</linearGradient>
		<path fill="url(#SVGID_3_)" d="M10.025,10.736l-0.015,0.033l6.36,11.981H2.219L9.097,9.773L8.044,9.091L0.142,24h18.306
			l-7.353-13.889l0,0"/>
		<linearGradient id="SVGID_4_" gradientUnits="userSpaceOnUse" x1="8.9106" y1="-1" x2="8.9106" y2="25.0108">
			<stop  offset="0" style="stop-color:#EB9B7B"/>
			<stop  offset="1" style="stop-color:#E28890"/>
		</linearGradient>
		<path fill="url(#SVGID_4_)" d="M12.85,4.068l-0.786,8.137l1.084,1.798l1.169-12.116l0,0L3.504,7.562l4.395,2.935L8.493,9.39
			L5.947,7.691L12.85,4.068"/>
		<linearGradient id="SVGID_5_" gradientUnits="userSpaceOnUse" x1="22.0078" y1="-1" x2="22.0078" y2="25.0108">
			<stop  offset="0" style="stop-color:#EB9B7B"/>
			<stop  offset="1" style="stop-color:#E28890"/>
		</linearGradient>
		<path fill="url(#SVGID_5_)" d="M16.808,5.654l6.892,4.3l-7.23-1.57L16.808,5.654 M15.93,3.63l-0.908,5.646l13.285,2.72
			l0.686,0.032l-0.643-0.621L15.93,3.63L15.93,3.63z"/>
		<linearGradient id="SVGID_6_" gradientUnits="userSpaceOnUse" x1="32.1729" y1="-1" x2="32.1729" y2="25.0108">
			<stop  offset="0" style="stop-color:#EB9B7B"/>
			<stop  offset="1" style="stop-color:#E28890"/>
		</linearGradient>
		<path fill="url(#SVGID_6_)" d="M32.173,9.217c1.458,0,2.646,1.186,2.646,2.645c0,1.458-1.188,2.645-2.646,2.645
			c-1.459,0-2.646-1.187-2.646-2.645C29.527,10.403,30.714,9.217,32.173,9.217 M32.173,7.967c-2.151,0-3.896,1.744-3.896,3.895
			c0,2.152,1.744,3.895,3.896,3.895c2.149,0,3.896-1.743,3.896-3.895C36.066,9.711,34.322,7.967,32.173,7.967L32.173,7.967z"/>
	</g>
</g>
</svg>
