<?xml version="1.0" encoding="utf-8"?>
<!-- Generator: Adobe Illustrator 15.1.0, SVG Export Plug-In . SVG Version: 6.00 Build 0)  -->
<!DOCTYPE svg PUBLIC "-//W3C//DTD SVG 1.1//EN" "http://www.w3.org/Graphics/SVG/1.1/DTD/svg11.dtd">
<svg version="1.1" id="Layer_1" xmlns="http://www.w3.org/2000/svg" xmlns:xlink="http://www.w3.org/1999/xlink" x="0px" y="0px"
	 width="32px" height="34px" viewBox="0 0 32 34" enable-background="new 0 0 32 34" xml:space="preserve">
<g>
	<g>
		
			<linearGradient id="SVGID_1_" gradientUnits="userSpaceOnUse" x1="432.9648" y1="-251.7148" x2="394.553" y2="-291.6674" gradientTransform="matrix(1 0 0 -1 -400 -250.5)">
			<stop  offset="0" style="stop-color:#3A9AE6"/>
			<stop  offset="1" style="stop-color:#A6CC66"/>
		</linearGradient>
		<path fill="url(#SVGID_1_)" d="M28.325,8.087L12.19,3.422L2.768,17.325L13.08,30.583l15.795-5.711L28.325,8.087z M13.922,27.249
			L6.187,17.206l7.161-10.46l12.161,3.578l0.355,12.671L13.922,27.249z"/>
		
			<linearGradient id="SVGID_2_" gradientUnits="userSpaceOnUse" x1="430.5078" y1="-247.9033" x2="391.755" y2="-277.9893" gradientTransform="matrix(1 0 0 -1 -400 -250.5)">
			<stop  offset="0" style="stop-color:#3A9AE6"/>
			<stop  offset="1" style="stop-color:#A6CC66"/>
		</linearGradient>
		<circle fill="url(#SVGID_2_)" cx="4.969" cy="17.23" r="4.827"/>
		
			<linearGradient id="SVGID_3_" gradientUnits="userSpaceOnUse" x1="439.2227" y1="-259.1289" x2="400.4704" y2="-289.2145" gradientTransform="matrix(1 0 0 -1 -400 -250.5)">
			<stop  offset="0" style="stop-color:#3A9AE6"/>
			<stop  offset="1" style="stop-color:#A6CC66"/>
		</linearGradient>
		<circle fill="url(#SVGID_3_)" cx="13.604" cy="28.517" r="4.827"/>
		
			<linearGradient id="SVGID_4_" gradientUnits="userSpaceOnUse" x1="441.8584" y1="-262.5278" x2="403.111" y2="-292.6096" gradientTransform="matrix(1 0 0 -1 -400 -250.5)">
			<stop  offset="0" style="stop-color:#3A9AE6"/>
			<stop  offset="1" style="stop-color:#A6CC66"/>
		</linearGradient>
		<circle fill="url(#SVGID_4_)" cx="27.032" cy="23.538" r="4.826"/>
		
			<linearGradient id="SVGID_5_" gradientUnits="userSpaceOnUse" x1="434.8457" y1="-253.4873" x2="396.0919" y2="-283.5741" gradientTransform="matrix(1 0 0 -1 -400 -250.5)">
			<stop  offset="0" style="stop-color:#3A9AE6"/>
			<stop  offset="1" style="stop-color:#A6CC66"/>
		</linearGradient>
		<circle fill="url(#SVGID_5_)" cx="26.586" cy="9.399" r="4.827"/>
		
			<linearGradient id="SVGID_6_" gradientUnits="userSpaceOnUse" x1="427.8486" y1="-244.4731" x2="389.0913" y2="-274.5626" gradientTransform="matrix(1 0 0 -1 -400 -250.5)">
			<stop  offset="0" style="stop-color:#3A9AE6"/>
			<stop  offset="1" style="stop-color:#A6CC66"/>
		</linearGradient>
		<circle fill="url(#SVGID_6_)" cx="13.029" cy="5.479" r="4.827"/>
		
			<linearGradient id="SVGID_7_" gradientUnits="userSpaceOnUse" x1="403.2031" y1="-269.2949" x2="410.6306" y2="-265.4161" gradientTransform="matrix(1 0 0 -1 -400 -250.5)">
			<stop  offset="0" style="stop-color:#4F946E"/>
			<stop  offset="1" style="stop-color:#4C9371"/>
		</linearGradient>
		<path fill="url(#SVGID_7_)" d="M8.628,20.376l-2.441-3.17l2.268-3.312c-0.646-0.675-1.485-1.162-2.43-1.373l-3.257,4.805
			l3.534,4.543C7.218,21.605,8.022,21.079,8.628,20.376z"/>
		
			<linearGradient id="SVGID_8_" gradientUnits="userSpaceOnUse" x1="409.5684" y1="-278.2432" x2="418.6057" y2="-277.0052" gradientTransform="matrix(1 0 0 -1 -400 -250.5)">
			<stop  offset="0" style="stop-color:#539668"/>
			<stop  offset="1" style="stop-color:#4A9275"/>
		</linearGradient>
		<path fill="url(#SVGID_8_)" d="M17.669,25.913l-3.747,1.336l-2.384-3.097c-0.844,0.4-1.552,1.037-2.04,1.826l3.581,4.604
			l5.351-1.935c0-0.045,0.002-0.088,0.002-0.133C18.432,27.559,18.15,26.665,17.669,25.913z"/>
		
			<linearGradient id="SVGID_9_" gradientUnits="userSpaceOnUse" x1="423.4141" y1="-277.5767" x2="429.3564" y2="-269.6536" gradientTransform="matrix(1 0 0 -1 -400 -250.5)">
			<stop  offset="0" style="stop-color:#408C85"/>
			<stop  offset="1" style="stop-color:#31829E"/>
		</linearGradient>
		<path fill="url(#SVGID_9_)" d="M28.684,19.001c-0.517-0.188-1.07-0.29-1.65-0.29c-0.445,0-0.875,0.062-1.283,0.174l0.115,4.11
			l-3.602,1.282c0.147,0.974,0.59,1.851,1.229,2.539l5.381-1.944L28.684,19.001z"/>
		
			<linearGradient id="SVGID_10_" gradientUnits="userSpaceOnUse" x1="423.4229" y1="-262.4404" x2="428.2101" y2="-258.561" gradientTransform="matrix(1 0 0 -1 -400 -250.5)">
			<stop  offset="0" style="stop-color:#297AA7"/>
			<stop  offset="1" style="stop-color:#2275B8"/>
		</linearGradient>
		<path fill="url(#SVGID_10_)" d="M25.509,10.324l0.107,3.805c0.312,0.064,0.639,0.098,0.971,0.098c0.685,0,1.336-0.144,1.927-0.4
			l-0.188-5.739l-5.578-1.612c-0.586,0.768-0.945,1.716-0.981,2.747L25.509,10.324z"/>
		
			<linearGradient id="SVGID_11_" gradientUnits="userSpaceOnUse" x1="409.2803" y1="-259.5073" x2="417.2879" y2="-254.5542" gradientTransform="matrix(1 0 0 -1 -400 -250.5)">
			<stop  offset="0" style="stop-color:#37848C"/>
			<stop  offset="1" style="stop-color:#2A7BA6"/>
		</linearGradient>
		<path fill="url(#SVGID_11_)" d="M11.165,9.934l2.183-3.188l3.866,1.138c0.408-0.708,0.644-1.528,0.644-2.404
			c0-0.144-0.008-0.285-0.021-0.426L12.19,3.422L8.997,8.134C9.522,8.929,10.276,9.561,11.165,9.934z"/>
	</g>
</g>
</svg>
