<?xml version="1.0" encoding="utf-8"?>
<!-- Generator: Adobe Illustrator 15.1.0, SVG Export Plug-In . SVG Version: 6.00 Build 0)  -->
<!DOCTYPE svg PUBLIC "-//W3C//DTD SVG 1.1//EN" "http://www.w3.org/Graphics/SVG/1.1/DTD/svg11.dtd">
<svg version="1.1" id="Layer_1" xmlns="http://www.w3.org/2000/svg" xmlns:xlink="http://www.w3.org/1999/xlink" x="0px" y="0px"
	 width="60px" height="23px" viewBox="0 0 60 23" enable-background="new 0 0 60 23" xml:space="preserve">
<g>
	<g>
		<linearGradient id="SVGID_1_" gradientUnits="userSpaceOnUse" x1="33.6777" y1="22.75" x2="33.6777" y2="-0.231">
			<stop  offset="0" style="stop-color:#64A877"/>
			<stop  offset="1" style="stop-color:#95B853"/>
		</linearGradient>
		<circle fill="url(#SVGID_1_)" cx="33.678" cy="11.799" r="1.366"/>
		<linearGradient id="SVGID_2_" gradientUnits="userSpaceOnUse" x1="28.7476" y1="22.75" x2="28.7476" y2="-0.231">
			<stop  offset="0" style="stop-color:#64A877"/>
			<stop  offset="1" style="stop-color:#95B853"/>
		</linearGradient>
		<circle fill="url(#SVGID_2_)" cx="28.748" cy="11.799" r="1.365"/>
		<linearGradient id="SVGID_3_" gradientUnits="userSpaceOnUse" x1="23.8169" y1="22.75" x2="23.8169" y2="-0.231">
			<stop  offset="0" style="stop-color:#64A877"/>
			<stop  offset="1" style="stop-color:#95B853"/>
		</linearGradient>
		<circle fill="url(#SVGID_3_)" cx="23.817" cy="11.799" r="1.365"/>
		<linearGradient id="SVGID_4_" gradientUnits="userSpaceOnUse" x1="52.7695" y1="22.75" x2="52.7695" y2="-0.231">
			<stop  offset="0" style="stop-color:#64A877"/>
			<stop  offset="1" style="stop-color:#95B853"/>
		</linearGradient>
		<path fill="url(#SVGID_4_)" d="M52.77,9.951l5.148,9.667h-2.775l0.666,1.25H60L52.77,7.292l0,0l-7.231,13.575h7.354l-0.291-1.25
			H47.62L52.77,9.951"/>
		<linearGradient id="SVGID_5_" gradientUnits="userSpaceOnUse" x1="43.9922" y1="22.75" x2="43.9922" y2="-0.231">
			<stop  offset="0" style="stop-color:#64A877"/>
			<stop  offset="1" style="stop-color:#95B853"/>
		</linearGradient>
		<path fill="url(#SVGID_5_)" d="M43.992,4.873l7.855,14.745H36.137L43.992,4.873 M43.992,2.214l-9.938,18.653H53.93L43.992,2.214
			L43.992,2.214z"/>
		<linearGradient id="SVGID_6_" gradientUnits="userSpaceOnUse" x1="15.0889" y1="22.75" x2="15.0889" y2="-0.231">
			<stop  offset="0" style="stop-color:#64A877"/>
			<stop  offset="1" style="stop-color:#95B853"/>
		</linearGradient>
		<path fill="url(#SVGID_6_)" d="M15.031,4.495c1.621,2.054,2.512,4.574,2.533,7.226c0.021,2.652-0.83,5.179-2.419,7.246
			c-1.621-2.054-2.512-4.574-2.533-7.227C12.592,9.089,13.442,6.562,15.031,4.495 M15.021,2.6
			c-4.937,5.094-4.862,13.22,0.136,18.261C20.093,15.768,20.019,7.642,15.021,2.6L15.021,2.6z"/>
		<g>
			<g>
				<linearGradient id="SVGID_7_" gradientUnits="userSpaceOnUse" x1="8.1772" y1="22.75" x2="8.1772" y2="-0.231">
					<stop  offset="0" style="stop-color:#64A877"/>
					<stop  offset="1" style="stop-color:#95B853"/>
				</linearGradient>
				<path fill="url(#SVGID_7_)" d="M14.271,14.723c-0.473,2.363-1.515,4.565-3.077,6.43l-8.605-9.368l8.573-9.337
					c1.516,1.808,2.544,3.933,3.047,6.21L15.404,8.3c-0.643-2.824-2.048-5.509-4.243-7.703L0.891,11.782L11.193,23
					c0.003,0,0.004-0.002,0.007-0.006c2.243-2.242,3.654-4.993,4.263-7.881L14.271,14.723z"/>
			</g>
		</g>
	</g>
</g>
</svg>
