<?xml version="1.0" encoding="utf-8"?>
<!-- Generator: Adobe Illustrator 15.0.2, SVG Export Plug-In . SVG Version: 6.00 Build 0)  -->
<!DOCTYPE svg PUBLIC "-//W3C//DTD SVG 1.1//EN" "http://www.w3.org/Graphics/SVG/1.1/DTD/svg11.dtd">
<svg version="1.1" id="Layer_1" xmlns="http://www.w3.org/2000/svg" xmlns:xlink="http://www.w3.org/1999/xlink" x="0px" y="0px"
	 width="42px" height="24px" viewBox="0 0 42 24" enable-background="new 0 0 42 24" xml:space="preserve">
<g>
	<g>
		
			<linearGradient id="SVGID_1_" gradientUnits="userSpaceOnUse" x1="439.5098" y1="855.5" x2="498.8747" y2="918.9906" gradientTransform="matrix(1 0 0 1 -421 -858)">
			<stop  offset="0" style="stop-color:#FFD13C"/>
			<stop  offset="0.5096" style="stop-color:#ECA074"/>
			<stop  offset="1" style="stop-color:#D86DAF"/>
		</linearGradient>
		<path fill="url(#SVGID_1_)" d="M22.189,0.057v10.268v1.065V24H42V0.057H22.189z M38.9,20.801H25.374V3.241H38.9V20.801z"/>
		
			<linearGradient id="SVGID_2_" gradientUnits="userSpaceOnUse" x1="429.6328" y1="822.3496" x2="430.5286" y2="902.9597" gradientTransform="matrix(1 0 0 1 -421 -858)">
			<stop  offset="0" style="stop-color:#FFD13C"/>
			<stop  offset="1" style="stop-color:#D86DAF"/>
		</linearGradient>
		<polygon fill="url(#SVGID_2_)" points="9.294,6.733 0.142,24 18.447,24 		"/>
		
			<linearGradient id="SVGID_3_" gradientUnits="userSpaceOnUse" x1="204.8418" y1="1033.7627" x2="205.1731" y2="1063.5837" gradientTransform="matrix(0.8316 0.5554 -0.5554 0.8316 422.6498 -978.7997)">
			<stop  offset="0" style="stop-color:#FFD13C"/>
			<stop  offset="1" style="stop-color:#D86DAF"/>
		</linearGradient>
		<polygon fill="url(#SVGID_3_)" points="13.147,14.003 13.147,14.003 14.316,1.887 3.504,7.562 		"/>
		
			<linearGradient id="SVGID_4_" gradientUnits="userSpaceOnUse" x1="431.5234" y1="869.5977" x2="433.2471" y2="865.7053" gradientTransform="matrix(1 0 0 1 -421 -858)">
			<stop  offset="0" style="stop-color:#DB7463"/>
			<stop  offset="1" style="stop-color:#E07D59"/>
		</linearGradient>
		<polygon fill="url(#SVGID_4_)" points="9.294,6.733 7.456,10.201 13.147,14.003 		"/>
		
			<linearGradient id="SVGID_5_" gradientUnits="userSpaceOnUse" x1="316.3057" y1="1539.4395" x2="206.671" y2="1557.6951" gradientTransform="matrix(0.9055 0.4243 0.4243 -0.9055 -855.3776 1313.0975)">
			<stop  offset="0" style="stop-color:#FFD13C"/>
			<stop  offset="1" style="stop-color:#D86DAF"/>
		</linearGradient>
		<path fill="url(#SVGID_5_)" d="M30.107,12.466l-1.758-1.059L15.93,3.63l-0.908,5.646l13.285,2.72L30.107,12.466z"/>
		<polygon fill="#D66A6F" points="22.189,7.549 22.189,10.744 25.374,11.396 25.374,9.543 		"/>
		
			<linearGradient id="SVGID_6_" gradientUnits="userSpaceOnUse" x1="509.8535" y1="915.9102" x2="416.8123" y2="840.321" gradientTransform="matrix(1 0 0 1 -421 -858)">
			<stop  offset="0" style="stop-color:#FFD13C"/>
			<stop  offset="1" style="stop-color:#D86DAF"/>
		</linearGradient>
		<circle fill="url(#SVGID_6_)" cx="32.172" cy="11.861" r="3.895"/>
	</g>
</g>
</svg>
